<svg width="509" height="427" viewBox="0 0 509 427" fill="none" xmlns="http://www.w3.org/2000/svg">
<g filter="url(#filter0_d_2_71)">
<g filter="url(#filter1_f_2_71)">
<mask id="mask0_2_71" style="mask-type:alpha" maskUnits="userSpaceOnUse" x="74" y="74" width="360" height="278">
<rect x="74.5561" y="74.6215" width="359.402" height="277.379" rx="23.6449" fill="#C4C4C4"/>
</mask>
<g mask="url(#mask0_2_71)">
<g filter="url(#filter2_f_2_71)">
<ellipse cx="410.099" cy="75.3711" rx="127.415" ry="188.168" fill="#89E3FF"/>
</g>
<g filter="url(#filter3_f_2_71)">
<ellipse cx="414.668" cy="313.017" rx="107.618" ry="158.93" fill="#44FFDD"/>
</g>
<g filter="url(#filter4_f_2_71)">
<ellipse cx="149.178" cy="283.78" rx="127.415" ry="188.168" fill="#A431FF"/>
</g>
<g filter="url(#filter5_f_2_71)">
<ellipse cx="182.681" cy="30.3908" rx="171.071" ry="252.639" fill="#31DAFF"/>
</g>
</g>
</g>
<mask id="mask1_2_71" style="mask-type:alpha" maskUnits="userSpaceOnUse" x="45" y="29" width="419" height="323">
<rect x="45" y="29" width="418.514" height="323" rx="23.6449" fill="white"/>
</mask>
<g mask="url(#mask1_2_71)">
<rect x="45" y="29" width="418.514" height="323" rx="23.6449" fill="#61ECFF"/>
<g filter="url(#filter6_f_2_71)">
<ellipse cx="435.731" cy="29.873" rx="148.372" ry="219.116" fill="#5BB0FF"/>
</g>
<g filter="url(#filter7_f_2_71)">
<ellipse cx="420.953" cy="353.016" rx="125.318" ry="185.07" fill="#6AD5ED"/>
</g>
<g filter="url(#filter8_f_2_71)">
<ellipse cx="131.895" cy="272.559" rx="148.372" ry="219.116" fill="#316BFF"/>
</g>
<g filter="url(#filter9_f_2_71)">
<ellipse cx="170.909" cy="-22.5054" rx="199.208" ry="294.192" fill="#31DAFF"/>
</g>
<g filter="url(#filter10_b_2_71)">
<rect x="41.5605" y="254.395" width="421" height="109.477" fill="white" fill-opacity="0.15"/>
<rect x="42.5605" y="255.395" width="419" height="107.477" stroke="url(#paint0_linear_2_71)" stroke-width="2"/>
</g>
<path d="M73.2285 306.214C73.2285 304.726 73.5165 303.418 74.0925 302.29C74.6925 301.138 75.5205 300.238 76.5765 299.59C77.6565 298.942 78.9165 298.618 80.3565 298.618C81.8205 298.618 83.0805 298.942 84.1365 299.59C85.1925 300.238 86.0085 301.138 86.5845 302.29C87.1605 303.418 87.4485 304.726 87.4485 306.214C87.4485 307.702 87.1485 309.022 86.5485 310.174C85.9725 311.302 85.1445 312.19 84.0645 312.838C83.0085 313.486 81.7725 313.81 80.3565 313.81C78.9165 313.81 77.6565 313.486 76.5765 312.838C75.5205 312.19 74.6925 311.302 74.0925 310.174C73.5165 309.022 73.2285 307.702 73.2285 306.214ZM66.7845 306.214C66.7845 308.158 67.1085 309.946 67.7565 311.578C68.4285 313.21 69.3645 314.626 70.5645 315.826C71.7885 317.026 73.2285 317.962 74.8845 318.634C76.5405 319.282 78.3645 319.606 80.3565 319.606C82.3245 319.606 84.1365 319.282 85.7925 318.634C87.4485 317.962 88.8765 317.026 90.0765 315.826C91.3005 314.626 92.2365 313.21 92.8845 311.578C93.5565 309.946 93.8925 308.158 93.8925 306.214C93.8925 304.27 93.5565 302.494 92.8845 300.886C92.2125 299.278 91.2645 297.886 90.0405 296.71C88.8165 295.534 87.3765 294.634 85.7205 294.01C84.0885 293.362 82.3005 293.038 80.3565 293.038C78.4365 293.038 76.6485 293.362 74.9925 294.01C73.3365 294.634 71.8965 295.534 70.6725 296.71C69.4485 297.886 68.4885 299.278 67.7925 300.886C67.1205 302.494 66.7845 304.27 66.7845 306.214ZM108.015 308.734V318.814H113.667V308.158C113.667 306.166 113.199 304.618 112.263 303.514C111.327 302.41 109.827 301.858 107.763 301.858C106.539 301.858 105.507 302.11 104.667 302.614C103.851 303.118 103.203 303.826 102.723 304.738V302.254H97.251V318.814H102.723V308.734C102.723 308.086 102.843 307.534 103.083 307.078C103.323 306.622 103.659 306.274 104.091 306.034C104.523 305.794 105.027 305.674 105.603 305.674C106.467 305.674 107.079 305.938 107.439 306.466C107.823 306.994 108.015 307.75 108.015 308.734ZM117.958 290.734V318.814H123.43V290.734H117.958ZM127.337 296.026C127.337 296.89 127.649 297.598 128.273 298.15C128.897 298.702 129.641 298.978 130.505 298.978C131.393 298.978 132.137 298.702 132.737 298.15C133.361 297.598 133.673 296.89 133.673 296.026C133.673 295.162 133.361 294.466 132.737 293.938C132.137 293.386 131.393 293.11 130.505 293.11C129.641 293.11 128.897 293.386 128.273 293.938C127.649 294.466 127.337 295.162 127.337 296.026ZM127.877 302.254V318.814H133.133V302.254H127.877ZM148.374 308.734V318.814H154.026V308.158C154.026 306.166 153.558 304.618 152.622 303.514C151.686 302.41 150.186 301.858 148.122 301.858C146.898 301.858 145.866 302.11 145.026 302.614C144.21 303.118 143.562 303.826 143.082 304.738V302.254H137.61V318.814H143.082V308.734C143.082 308.086 143.202 307.534 143.442 307.078C143.682 306.622 144.018 306.274 144.45 306.034C144.882 305.794 145.386 305.674 145.962 305.674C146.826 305.674 147.438 305.938 147.798 306.466C148.182 306.994 148.374 307.75 148.374 308.734ZM166.741 319.174C168.853 319.174 170.641 318.766 172.105 317.95C173.593 317.134 174.769 315.91 175.633 314.278L170.773 313.09C170.365 313.81 169.813 314.35 169.117 314.71C168.445 315.07 167.629 315.25 166.669 315.25C165.829 315.25 165.121 315.07 164.545 314.71C163.969 314.326 163.537 313.774 163.249 313.054C162.961 312.334 162.817 311.47 162.817 310.462C162.841 309.358 162.985 308.446 163.249 307.726C163.537 306.982 163.957 306.43 164.509 306.07C165.061 305.71 165.745 305.53 166.561 305.53C167.209 305.53 167.773 305.674 168.253 305.962C168.733 306.25 169.105 306.658 169.369 307.186C169.633 307.714 169.765 308.338 169.765 309.058C169.765 309.226 169.717 309.442 169.621 309.706C169.549 309.946 169.453 310.15 169.333 310.318L170.629 308.662H160.405V311.686H175.525C175.573 311.518 175.597 311.314 175.597 311.074C175.597 310.81 175.597 310.546 175.597 310.282C175.597 308.506 175.249 306.994 174.553 305.746C173.857 304.498 172.849 303.55 171.529 302.902C170.209 302.23 168.589 301.894 166.669 301.894C164.749 301.894 163.081 302.242 161.665 302.938C160.273 303.634 159.205 304.63 158.461 305.926C157.717 307.222 157.345 308.758 157.345 310.534C157.345 312.286 157.729 313.81 158.497 315.106C159.265 316.402 160.345 317.41 161.737 318.13C163.153 318.826 164.821 319.174 166.741 319.174ZM193.059 309.958L188.811 313.018C189.387 314.218 190.191 315.322 191.223 316.33C192.255 317.338 193.467 318.142 194.859 318.742C196.275 319.318 197.799 319.606 199.431 319.606C200.607 319.606 201.747 319.426 202.851 319.066C203.979 318.73 204.975 318.226 205.839 317.554C206.727 316.882 207.423 316.054 207.927 315.07C208.455 314.062 208.719 312.922 208.719 311.65C208.719 310.594 208.551 309.658 208.215 308.842C207.879 308.026 207.411 307.306 206.811 306.682C206.235 306.058 205.563 305.53 204.795 305.098C204.027 304.642 203.199 304.246 202.311 303.91C201.135 303.502 200.127 303.118 199.287 302.758C198.471 302.398 197.835 302.002 197.379 301.57C196.947 301.138 196.731 300.634 196.731 300.058C196.731 299.506 196.959 299.05 197.415 298.69C197.871 298.306 198.531 298.114 199.395 298.114C200.043 298.114 200.643 298.246 201.195 298.51C201.771 298.75 202.287 299.098 202.743 299.554C203.223 299.986 203.643 300.502 204.003 301.102L208.647 298.51C208.215 297.646 207.591 296.794 206.775 295.954C205.959 295.114 204.927 294.418 203.679 293.866C202.455 293.314 201.003 293.038 199.323 293.038C197.691 293.038 196.203 293.326 194.859 293.902C193.539 294.454 192.483 295.27 191.691 296.35C190.923 297.43 190.539 298.714 190.539 300.202C190.539 301.45 190.767 302.518 191.223 303.406C191.679 304.27 192.255 305.014 192.951 305.638C193.647 306.238 194.379 306.73 195.147 307.114C195.939 307.498 196.635 307.798 197.235 308.014C198.459 308.47 199.443 308.878 200.187 309.238C200.931 309.598 201.471 309.982 201.807 310.39C202.143 310.774 202.311 311.29 202.311 311.938C202.311 312.706 202.023 313.318 201.447 313.774C200.871 314.206 200.139 314.422 199.251 314.422C198.411 314.422 197.607 314.242 196.839 313.882C196.095 313.522 195.399 313.006 194.751 312.334C194.127 311.662 193.563 310.87 193.059 309.958ZM217.719 290.734H212.247V318.814H217.719V290.734ZM223.011 308.734V318.814H228.447V307.942C228.447 306.574 228.255 305.422 227.871 304.486C227.487 303.55 226.875 302.842 226.035 302.362C225.219 301.882 224.127 301.642 222.759 301.642C221.391 301.642 220.263 301.966 219.375 302.614C218.511 303.238 217.863 304.09 217.431 305.17C216.999 306.226 216.783 307.414 216.783 308.734H217.719C217.719 308.086 217.839 307.546 218.079 307.114C218.319 306.658 218.655 306.31 219.087 306.07C219.519 305.806 220.023 305.674 220.599 305.674C221.487 305.674 222.111 305.938 222.471 306.466C222.831 306.994 223.011 307.75 223.011 308.734ZM231.771 310.534C231.771 312.262 232.179 313.774 232.995 315.07C233.811 316.366 234.939 317.374 236.379 318.094C237.819 318.814 239.439 319.174 241.239 319.174C243.039 319.174 244.647 318.814 246.063 318.094C247.503 317.374 248.631 316.366 249.447 315.07C250.287 313.774 250.707 312.262 250.707 310.534C250.707 308.782 250.287 307.258 249.447 305.962C248.631 304.666 247.503 303.658 246.063 302.938C244.647 302.218 243.039 301.858 241.239 301.858C239.439 301.858 237.819 302.218 236.379 302.938C234.939 303.658 233.811 304.666 232.995 305.962C232.179 307.258 231.771 308.782 231.771 310.534ZM237.351 310.534C237.351 309.67 237.531 308.926 237.891 308.302C238.251 307.678 238.719 307.198 239.295 306.862C239.871 306.526 240.519 306.358 241.239 306.358C241.935 306.358 242.571 306.526 243.147 306.862C243.747 307.198 244.215 307.678 244.551 308.302C244.911 308.926 245.091 309.67 245.091 310.534C245.091 311.398 244.911 312.142 244.551 312.766C244.215 313.366 243.747 313.834 243.147 314.17C242.571 314.506 241.935 314.674 241.239 314.674C240.519 314.674 239.871 314.506 239.295 314.17C238.719 313.834 238.251 313.366 237.891 312.766C237.531 312.142 237.351 311.398 237.351 310.534ZM259.378 326.734V302.254H253.942V326.734H259.378ZM272.914 310.534C272.914 308.59 272.53 306.97 271.762 305.674C271.018 304.354 270.046 303.358 268.846 302.686C267.67 302.014 266.398 301.678 265.03 301.678C263.59 301.678 262.342 302.05 261.286 302.794C260.254 303.514 259.462 304.534 258.91 305.854C258.358 307.174 258.082 308.734 258.082 310.534C258.082 312.31 258.358 313.87 258.91 315.214C259.462 316.534 260.254 317.566 261.286 318.31C262.342 319.03 263.59 319.39 265.03 319.39C266.398 319.39 267.67 319.054 268.846 318.382C270.046 317.71 271.018 316.714 271.762 315.394C272.53 314.074 272.914 312.454 272.914 310.534ZM267.19 310.534C267.19 311.398 267.01 312.13 266.65 312.73C266.29 313.33 265.81 313.786 265.21 314.098C264.61 314.41 263.95 314.566 263.23 314.566C262.606 314.566 261.994 314.422 261.394 314.134C260.818 313.822 260.338 313.366 259.954 312.766C259.57 312.166 259.378 311.422 259.378 310.534C259.378 309.646 259.57 308.902 259.954 308.302C260.338 307.702 260.818 307.258 261.394 306.97C261.994 306.658 262.606 306.502 263.23 306.502C263.95 306.502 264.61 306.658 265.21 306.97C265.81 307.282 266.29 307.738 266.65 308.338C267.01 308.938 267.19 309.67 267.19 310.534Z" fill="white"/>
</g>
<g clip-path="url(#clip0_2_71)">
<path d="M301.96 62.0165H336.273V68.35H322.661V101.67H315.855V68.35H301.96V62.0165Z" fill="white"/>
<path d="M245.526 62.0165V68.35H218.021V78.5386H240.141V84.8721H218.021V95.3361H245.526V101.67H211.215V68.35H211.212V62.0165H245.526Z" fill="white"/>
<path d="M262.66 62.0331H253.753L285.656 101.686H294.589L278.635 81.8732L294.563 62.0633L285.656 62.0771L274.176 76.3349L262.66 62.0331Z" fill="white"/>
<path d="M271.8 90.3574L267.34 84.8115L253.728 101.716H262.66L271.8 90.3574Z" fill="white"/>
<path fill-rule="evenodd" clip-rule="evenodd" d="M211.453 101.669L179.508 62H171V101.653H177.806V70.4758L202.903 101.669H211.453Z" fill="white"/>
<path d="M337.803 101.427C337.305 101.427 336.881 101.255 336.526 100.909C336.171 100.564 335.995 100.146 336 99.6506C335.995 99.1689 336.171 98.7553 336.526 98.41C336.881 98.0646 337.305 97.8919 337.803 97.8919C338.283 97.8919 338.702 98.0646 339.057 98.41C339.417 98.7553 339.597 99.1689 339.602 99.6506C339.597 99.9777 339.514 100.278 339.348 100.546C339.178 100.818 338.961 101.032 338.688 101.187C338.421 101.346 338.126 101.427 337.803 101.427Z" fill="white"/>
<path d="M349.42 84.7227H352.436V96.3423C352.432 97.4102 352.2 98.3236 351.749 99.0916C351.292 99.8596 350.66 100.446 349.849 100.859C349.042 101.268 348.097 101.477 347.022 101.477C346.04 101.477 345.159 101.3 344.375 100.955C343.591 100.609 342.968 100.091 342.512 99.4097C342.05 98.728 341.824 97.8783 341.824 96.8604H344.846C344.85 97.3057 344.952 97.6919 345.145 98.0146C345.339 98.3372 345.606 98.5826 345.947 98.7553C346.293 98.928 346.69 99.0143 347.137 99.0143C347.621 99.0143 348.037 98.9143 348.373 98.7098C348.71 98.5099 348.968 98.21 349.148 97.8101C349.323 97.4148 349.415 96.924 349.42 96.3423V84.7227Z" fill="white"/>
<path d="M364.846 89.2669C364.772 88.5625 364.449 88.0127 363.887 87.6219C363.319 87.2266 362.586 87.0312 361.686 87.0312C361.055 87.0312 360.511 87.1266 360.059 87.3129C359.607 87.5038 359.256 87.7582 359.016 88.0809C358.777 88.4035 358.657 88.7716 358.648 89.1852C358.648 89.5305 358.73 89.8304 358.892 90.0804C359.053 90.3348 359.27 90.5484 359.551 90.7211C359.828 90.8983 360.137 91.0437 360.474 91.1618C360.815 91.28 361.156 91.38 361.497 91.4618L363.07 91.848C363.702 91.9934 364.316 92.1889 364.901 92.4388C365.487 92.6842 366.017 92.9978 366.482 93.3749C366.948 93.7521 367.317 94.2065 367.589 94.7382C367.861 95.2699 368 95.8924 368 96.6104C368 97.5783 367.751 98.4281 367.248 99.1642C366.746 99.8958 366.022 100.468 365.072 100.882C364.126 101.291 362.983 101.5 361.636 101.5C360.336 101.5 359.201 101.3 358.247 100.9C357.288 100.505 356.54 99.9231 356.001 99.1597C355.461 98.3963 355.17 97.4647 355.129 96.3695H358.117C358.159 96.9421 358.343 97.4193 358.657 97.8055C358.975 98.1872 359.39 98.469 359.898 98.6599C360.41 98.8462 360.981 98.9416 361.613 98.9416C362.273 98.9416 362.854 98.8416 363.356 98.6462C363.854 98.4508 364.246 98.1782 364.527 97.8237C364.813 97.4738 364.956 97.0603 364.961 96.5877C364.956 96.156 364.827 95.797 364.578 95.5152C364.325 95.2335 363.974 94.9972 363.527 94.8064C363.075 94.6155 362.549 94.4428 361.949 94.2929L360.04 93.8111C358.661 93.4612 357.568 92.9296 356.77 92.2162C355.968 91.5027 355.572 90.5575 355.572 89.3715C355.572 88.399 355.839 87.5447 356.379 86.813C356.913 86.0814 357.647 85.5134 358.574 85.1089C359.506 84.7 360.557 84.5 361.728 84.5C362.918 84.5 363.96 84.7 364.859 85.1089C365.758 85.5134 366.464 86.0769 366.976 86.7948C367.488 87.5128 367.756 88.3353 367.77 89.2669H364.846Z" fill="white"/>
</g>
<path fill-rule="evenodd" clip-rule="evenodd" d="M256 132.452L274.661 143.226V164.774L256 175.548L237.339 164.774V143.226L256 132.452ZM239.432 144.435V160.263L253.14 136.521L239.432 144.435ZM256 135.754L240.199 163.123H271.801L256 135.754ZM269.707 165.217H242.293L256 173.131L269.707 165.217ZM272.568 160.263L258.86 136.521L272.568 144.435V160.263Z" fill="white"/>
<path d="M256 138.07C258.436 138.07 260.41 136.096 260.41 133.66C260.41 131.225 258.436 129.25 256 129.25C253.564 129.25 251.59 131.225 251.59 133.66C251.59 136.096 253.564 138.07 256 138.07Z" fill="white"/>
<path d="M273.615 148.24C276.05 148.24 278.025 146.266 278.025 143.83C278.025 141.395 276.05 139.42 273.615 139.42C271.179 139.42 269.205 141.395 269.205 143.83C269.205 146.266 271.179 148.24 273.615 148.24Z" fill="white"/>
<path d="M273.615 168.58C276.05 168.58 278.025 166.605 278.025 164.17C278.025 161.734 276.05 159.76 273.615 159.76C271.179 159.76 269.205 161.734 269.205 164.17C269.205 166.605 271.179 168.58 273.615 168.58Z" fill="white"/>
<path d="M256 178.75C258.436 178.75 260.41 176.775 260.41 174.34C260.41 171.904 258.436 169.93 256 169.93C253.564 169.93 251.59 171.904 251.59 174.34C251.59 176.775 253.564 178.75 256 178.75Z" fill="white"/>
<path d="M238.383 168.58C240.819 168.58 242.793 166.605 242.793 164.17C242.793 161.734 240.819 159.76 238.383 159.76C235.947 159.76 233.973 161.734 233.973 164.17C233.973 166.605 235.947 168.58 238.383 168.58Z" fill="white"/>
<path d="M238.383 148.24C240.819 148.24 242.793 146.266 242.793 143.83C242.793 141.395 240.819 139.42 238.383 139.42C235.947 139.42 233.973 141.395 233.973 143.83C233.973 146.266 235.947 148.24 238.383 148.24Z" fill="white"/>
<g clip-path="url(#clip1_2_71)">
<path d="M384.459 160.475H387V151.089H384.459V160.475ZM384.351 148.663C384.351 147.829 384.812 147.412 385.734 147.412C386.656 147.412 387.117 147.829 387.117 148.663C387.117 149.06 387.001 149.369 386.771 149.591C386.54 149.812 386.195 149.922 385.734 149.922C384.812 149.922 384.351 149.502 384.351 148.663V148.663Z" fill="white"/>
<path fill-rule="evenodd" clip-rule="evenodd" d="M374.178 155.06C374.997 154.36 375.407 153.35 375.407 152.029C375.407 150.759 375.022 149.803 374.253 149.162C373.484 148.522 372.361 148.201 370.883 148.201H366.993V160.475H369.575V156.109H370.683C372.194 156.109 373.359 155.76 374.178 155.06ZM370.425 153.977H369.575V150.334H370.75C371.455 150.334 371.973 150.479 372.304 150.77C372.634 151.061 372.799 151.512 372.799 152.122C372.799 152.726 372.602 153.186 372.208 153.503C371.813 153.819 371.219 153.977 370.425 153.977V153.977Z" fill="white"/>
<path d="M383.111 150.988C382.883 150.938 382.597 150.913 382.253 150.913C381.675 150.913 381.141 151.074 380.649 151.395C380.16 151.715 379.758 152.152 379.479 152.667H379.354L378.979 151.089H377.054V160.475H379.595V155.698C379.595 154.943 379.822 154.355 380.274 153.935C380.727 153.515 381.359 153.305 382.17 153.305C382.464 153.305 382.714 153.334 382.919 153.389L383.111 150.988ZM394.95 159.888C395.614 159.384 395.946 158.651 395.946 157.688C395.946 157.223 395.865 156.823 395.704 156.487C395.543 156.152 395.293 155.855 394.954 155.597C394.616 155.34 394.083 155.063 393.355 154.767C392.538 154.436 392.009 154.187 391.768 154.019C391.526 153.851 391.405 153.653 391.405 153.423C391.405 153.015 391.78 152.81 392.53 152.81C392.952 152.81 393.366 152.875 393.771 153.003C394.177 153.132 394.613 153.297 395.079 153.499L395.846 151.652C394.785 151.159 393.694 150.913 392.572 150.913C391.394 150.913 390.485 151.141 389.844 151.597C389.202 152.053 388.881 152.698 388.881 153.532C388.881 154.019 388.957 154.429 389.11 154.762C389.263 155.095 389.507 155.391 389.844 155.648C390.179 155.905 390.706 156.185 391.422 156.487C391.922 156.7 392.322 156.886 392.622 157.046C392.922 157.205 393.133 157.348 393.255 157.474C393.377 157.6 393.438 157.764 393.438 157.965C393.438 158.502 392.977 158.771 392.055 158.771C391.605 158.771 391.085 158.695 390.493 158.544C389.901 158.393 389.37 158.206 388.898 157.982V160.098C389.329 160.281 389.779 160.418 390.239 160.505C390.717 160.597 391.294 160.643 391.972 160.643C393.294 160.643 394.286 160.391 394.95 159.887V159.888ZM406.012 160.475H403.471V154.993C403.471 154.316 403.358 153.808 403.134 153.469C402.909 153.131 402.555 152.961 402.071 152.961C401.422 152.961 400.95 153.202 400.655 153.683C400.361 154.165 400.214 154.957 400.214 156.059V160.475H397.673V151.089H399.614L399.955 152.29H400.097C400.347 151.859 400.708 151.521 401.18 151.278C401.652 151.035 402.194 150.913 402.805 150.913C404.199 150.913 405.143 151.372 405.637 152.29H405.862C406.112 151.853 406.48 151.515 406.966 151.274C407.452 151.033 408 150.913 408.611 150.913C409.667 150.913 410.465 151.186 411.007 151.731C411.548 152.277 411.819 153.151 411.819 154.355V160.475H409.27V154.993C409.27 154.316 409.157 153.808 408.932 153.469C408.707 153.131 408.353 152.961 407.87 152.961C407.248 152.961 406.783 153.185 406.474 153.633C406.166 154.081 406.012 154.791 406.012 155.765V160.475Z" fill="white"/>
<path fill-rule="evenodd" clip-rule="evenodd" d="M419.471 159.199L419.963 160.475H421.738V154.22C421.738 153.101 421.404 152.267 420.738 151.719C420.071 151.17 419.113 150.896 417.864 150.896C416.559 150.896 415.37 151.179 414.298 151.744L415.139 153.473C416.144 153.02 417.019 152.793 417.764 152.793C418.73 152.793 419.213 153.269 419.213 154.22V154.632L417.597 154.682C416.203 154.733 415.16 154.994 414.468 155.467C413.777 155.94 413.432 156.675 413.432 157.671C413.432 158.623 413.688 159.356 414.202 159.871C414.716 160.386 415.42 160.643 416.314 160.643C417.042 160.643 417.632 160.538 418.084 160.328C418.537 160.118 418.977 159.742 419.405 159.199H419.471ZM418.23 156.16L419.213 156.126V156.899C419.213 157.464 419.037 157.917 418.684 158.259C418.332 158.6 417.861 158.771 417.272 158.771C416.45 158.771 416.039 158.41 416.039 157.688C416.039 157.184 416.219 156.809 416.581 156.563C416.942 156.317 417.491 156.182 418.23 156.16V156.16ZM354.021 165.153L337.112 170.192C336.596 170.347 336.101 169.896 336.209 169.371L342.25 140.219C342.363 139.674 343.11 139.587 343.346 140.092L354.531 164.026C354.742 164.477 354.501 165.01 354.021 165.153V165.153ZM356.921 163.964L343.971 136.252V136.251C343.81 135.91 343.56 135.619 343.248 135.409C342.937 135.199 342.574 135.078 342.2 135.059C341.412 135.013 340.706 135.396 340.308 136.047L326.263 158.972C326.049 159.318 325.938 159.718 325.943 160.126C325.947 160.533 326.066 160.931 326.287 161.273L333.153 171.99C333.562 172.63 334.271 173 335.008 173C335.217 173 335.427 172.97 335.633 172.909L355.562 166.969C355.862 166.881 356.139 166.728 356.376 166.522C356.612 166.316 356.802 166.061 356.932 165.775C357.061 165.49 357.127 165.181 357.125 164.868C357.123 164.555 357.053 164.247 356.921 163.964V163.964Z" fill="white"/>
</g>
<path fill-rule="evenodd" clip-rule="evenodd" d="M318 197C311.333 197 307.167 200.333 305.5 207C308 203.667 310.917 202.417 314.25 203.25C316.152 203.725 317.511 205.106 319.016 206.632C321.467 209.12 324.304 212 330.5 212C337.167 212 341.333 208.667 343 202C340.5 205.333 337.583 206.583 334.25 205.75C332.348 205.275 330.989 203.894 329.484 202.368C327.033 199.88 324.196 197 318 197ZM305.5 212C298.833 212 294.667 215.333 293 222C295.5 218.667 298.417 217.417 301.75 218.25C303.652 218.726 305.011 220.106 306.516 221.632C308.967 224.12 311.804 227 318 227C324.667 227 328.833 223.667 330.5 217C328 220.333 325.083 221.583 321.75 220.75C319.848 220.275 318.489 218.894 316.984 217.368C314.533 214.88 311.696 212 305.5 212Z" fill="white"/>
<path d="M154.3 192H125.6C123.6 192 122 193.6 122 195.6V228.4C122 230.4 123.6 232 125.6 232H154.3C156.3 232 157.9 230.4 157.9 228.4V195.6C157.9 193.6 156.3 192 154.3 192ZM155.9 228.4C155.9 229.3 155.2 230 154.3 230H125.6C124.7 230 124 229.3 124 228.4V195.6C124 194.7 124.7 194 125.6 194H154.3C155.2 194 155.9 194.7 155.9 195.6V228.4V228.4ZM131 226L135.5 222L131 218V226ZM147.2 209.8C146.4 209 144.9 208 142.4 208C139.7 208 136.9 208.7 134.9 209.4V198H130.9V215.3L133.7 214C133.7 214 138.3 211.9 142.3 211.9C144.3 211.9 144.8 213 144.8 214V226H148.8V214C148.9 213.7 148.9 211.5 147.2 209.8ZM141.9 204.5H145.9C147.7 202.4 148.6 200.3 148.9 198H144.9C144.5 200.3 143.5 202.4 141.9 204.5ZM252.4 213.9V205.1H256.4V213.9C256.4 215.9 257.1 216.9 258.7 216.9C260.3 216.9 260.9 216 260.9 213.9V205.1H264.8V214C264.8 217.9 262.9 220.2 258.6 220.2C254.3 220.1 252.4 217.8 252.4 213.9ZM235.6 205.1H239.6V210.5L243.7 205.1H248.3L243.3 210.9L248.7 219.9H244.2L240.7 214L239.6 215.3V219.9H235.6V205.1ZM216.6 212.4C216.6 207 220.3 204.7 223.9 204.7C227.5 204.7 231.2 207 231.2 212.4C231.2 217.8 227.5 220.1 223.9 220.1C220.3 220.1 216.6 217.9 216.6 212.4ZM227.1 212.4C227.1 209.7 225.9 208 223.8 208C221.7 208 220.5 209.7 220.5 212.4C220.5 215.1 221.7 216.9 223.8 216.9C225.9 216.9 227.1 215.2 227.1 212.4ZM200.5 205.1H206.3C210.1 205.1 212.4 206.4 212.4 209.9C212.4 212.2 211.4 213.6 209.5 214.2L212.6 219.9H208.4L205.5 214.8H204.4V219.9H200.5V205.1ZM206.2 211.7C207.8 211.7 208.6 211.2 208.6 210C208.6 208.8 207.9 208.3 206.2 208.3H204.5V211.7H206.2V211.7ZM185.2 205.1H195.8V208.4H189.2V210.8H193.9V213.9H189.2V216.6H196.1V219.8H185.2V205.1V205.1ZM167.1 205.1H171.1V210.6H176V205.1H180V219.9H176V213.9H171.1V219.9H167.1V205.1Z" fill="white"/>
<path d="M100.556 148.926H94.916V166.392H92.616V148.926H87V146.853H100.556V148.926ZM109.454 152.441L103.036 168.624C101.893 171.511 100.286 172.957 98.211 172.957C97.631 172.957 97.145 172.899 96.754 172.779V170.775C97.234 170.938 97.676 171.019 98.074 171.019C99.202 171.019 100.047 170.349 100.608 169.004L101.724 166.361L96.274 152.441H98.754L102.529 163.176C102.576 163.312 102.669 163.668 102.816 164.238H102.896L103.166 163.203L107.13 152.441H109.454ZM113.108 164.377H113.054V172.81H110.818V152.44H113.054V154.893H113.108C114.208 153.041 115.813 152.113 117.933 152.113C119.731 152.113 121.133 152.737 122.143 153.985C123.153 155.233 123.653 156.907 123.653 159.007C123.653 161.34 123.087 163.212 121.953 164.615C120.819 166.018 119.263 166.719 117.295 166.719C115.495 166.715 114.09 165.936 113.11 164.374L113.108 164.377ZM113.054 158.749V160.699C113.054 161.854 113.43 162.829 114.178 163.637C114.926 164.445 115.878 164.842 117.034 164.842C118.386 164.842 119.448 164.322 120.216 163.288C120.984 162.254 121.366 160.812 121.366 158.971C121.366 157.417 121.006 156.201 120.289 155.321C119.572 154.441 118.589 154.001 117.375 154.001C116.077 154.001 115.03 154.454 114.24 155.357C113.45 156.26 113.054 157.386 113.054 158.749ZM137.209 159.974H127.359C127.394 161.528 127.812 162.724 128.611 163.57C129.41 164.416 130.511 164.837 131.909 164.837C133.479 164.837 134.924 164.317 136.242 163.283V165.38C135.017 166.27 133.394 166.717 131.378 166.717C129.405 166.717 127.858 166.085 126.731 164.817C125.604 163.549 125.031 161.767 125.031 159.469C125.031 157.299 125.647 155.529 126.876 154.164C128.105 152.799 129.636 152.114 131.461 152.114C133.286 152.114 134.697 152.704 135.697 153.884C136.697 155.064 137.197 156.704 137.197 158.802V159.972L137.209 159.974ZM134.909 158.079C134.901 156.779 134.587 155.785 133.975 155.069C133.363 154.353 132.51 153.992 131.421 153.992C130.367 153.992 129.471 154.368 128.735 155.124C127.999 155.88 127.535 156.864 127.371 158.081L134.909 158.079ZM139.153 165.601V162.904C139.436 163.174 139.773 163.424 140.168 163.64C140.563 163.856 140.968 164.043 141.416 164.19C141.864 164.337 142.292 164.457 142.73 164.54C143.168 164.623 143.58 164.664 143.95 164.664C145.237 164.664 146.202 164.404 146.837 163.881C147.472 163.358 147.79 162.606 147.79 161.626C147.79 161.099 147.685 160.642 147.472 160.25C147.247 159.842 146.949 159.48 146.592 159.18C146.216 158.858 145.774 158.548 145.262 158.254L143.612 157.32L141.868 156.27C141.353 155.938 140.881 155.546 140.461 155.1C140.061 154.674 139.748 154.19 139.519 153.65C139.29 153.11 139.179 152.476 139.179 151.75C139.179 150.86 139.357 150.087 139.714 149.43C140.071 148.773 140.539 148.23 141.124 147.802C141.709 147.374 142.368 147.058 143.112 146.849C143.852 146.64 144.618 146.535 145.387 146.535C147.15 146.535 148.433 146.768 149.239 147.229V149.802C148.185 149.004 146.839 148.605 145.174 148.605C144.717 148.605 144.259 148.659 143.802 148.76C143.345 148.861 142.938 149.035 142.582 149.272C142.226 149.509 141.935 149.812 141.71 150.187C141.485 150.562 141.373 151.012 141.373 151.551C141.373 152.051 141.458 152.481 141.629 152.845C141.8 153.209 142.051 153.539 142.385 153.841C142.719 154.143 143.121 154.431 143.602 154.713L145.252 155.639L147.072 156.729C147.646 157.109 148.149 157.531 148.58 157.996C149.011 158.461 149.355 158.973 149.607 159.536C149.859 160.099 149.987 160.746 149.987 161.47C149.987 162.43 149.813 163.25 149.472 163.915C149.144 164.562 148.666 165.12 148.077 165.543C147.492 165.963 146.817 166.263 146.05 166.45C145.283 166.637 144.48 166.73 143.632 166.73C143.349 166.73 143 166.707 142.586 166.656L141.316 166.439C140.882 166.342 140.476 166.226 140.088 166.086C139.698 165.936 139.39 165.786 139.154 165.606L139.153 165.601ZM161.883 165.751C160.81 166.394 159.538 166.721 158.07 166.721C156.082 166.721 154.474 166.074 153.253 164.779C152.032 163.484 151.42 161.807 151.42 159.745C151.42 157.447 152.08 155.602 153.396 154.207C154.712 152.812 156.469 152.114 158.67 152.114C159.895 152.114 160.976 152.344 161.914 152.796V155.096C160.879 154.366 159.771 154.006 158.589 154.006C157.163 154.006 155.993 154.518 155.082 155.541C154.171 156.564 153.714 157.905 153.714 159.567C153.714 161.202 154.144 162.493 155.001 163.435C155.858 164.377 157.011 164.853 158.454 164.853C159.671 164.853 160.814 164.45 161.888 163.64V165.76L161.883 165.751ZM170.529 154.699C170.139 154.401 169.576 154.249 168.829 154.249C167.876 154.249 167.077 154.699 166.439 155.599C165.801 156.499 165.479 157.723 165.479 159.277V166.387H163.243V152.437H165.479V155.313H165.533C165.851 154.333 166.335 153.565 166.99 153.019C167.645 152.473 168.373 152.194 169.183 152.194C169.763 152.194 170.21 152.256 170.52 152.394L170.529 154.699ZM173.094 148.899C172.694 148.899 172.354 148.763 172.071 148.492C171.788 148.221 171.649 147.876 171.649 147.457C171.649 147.038 171.789 146.694 172.071 146.415C172.353 146.136 172.695 146 173.094 146C173.501 146 173.85 146.14 174.136 146.415C174.276 146.549 174.387 146.711 174.461 146.89C174.535 147.07 174.571 147.263 174.566 147.457C174.566 147.857 174.423 148.197 174.136 148.48C173.849 148.755 173.5 148.9 173.094 148.9V148.899ZM174.184 166.392H171.948V152.442H174.184V166.392ZM177.788 164.377H177.734V172.81H175.498V152.44H177.734V154.893H177.788C178.888 153.041 180.493 152.113 182.613 152.113C184.411 152.113 185.813 152.737 186.823 153.985C187.833 155.233 188.333 156.907 188.333 159.007C188.333 161.34 187.767 163.212 186.633 164.615C185.499 166.018 183.933 166.719 181.975 166.719C180.175 166.715 178.77 165.936 177.79 164.374L177.788 164.377ZM177.734 158.75V160.7C177.734 161.855 178.11 162.83 178.858 163.638C179.606 164.446 180.558 164.843 181.714 164.843C183.066 164.843 184.128 164.323 184.896 163.289C185.664 162.255 186.046 160.813 186.046 158.972C186.046 157.418 185.686 156.202 184.969 155.322C184.252 154.442 183.269 154.002 182.055 154.002C180.757 154.002 179.71 154.455 178.92 155.358C178.13 156.261 177.734 157.388 177.734 158.753V158.75ZM196.7 166.257C196.173 166.547 195.48 166.691 194.615 166.691C192.175 166.691 190.949 165.327 190.949 162.603V154.349H188.549V152.442H190.949V149.036L193.185 148.316V152.443H196.7V154.35H193.185V162.21C193.185 163.144 193.345 163.814 193.662 164.214C193.979 164.614 194.507 164.814 195.242 164.814C195.804 164.814 196.292 164.659 196.699 164.349L196.7 166.257Z" fill="white"/>
</g>
<defs>
<filter id="filter0_d_2_71" x="41" y="29" width="426.514" height="331" filterUnits="userSpaceOnUse" color-interpolation-filters="sRGB">
<feFlood flood-opacity="0" result="BackgroundImageFix"/>
<feColorMatrix in="SourceAlpha" type="matrix" values="0 0 0 0 0 0 0 0 0 0 0 0 0 0 0 0 0 0 127 0" result="hardAlpha"/>
<feOffset dy="4"/>
<feGaussianBlur stdDeviation="2"/>
<feComposite in2="hardAlpha" operator="out"/>
<feColorMatrix type="matrix" values="0 0 0 0 0 0 0 0 0 0 0 0 0 0 0 0 0 0 0.25 0"/>
<feBlend mode="normal" in2="BackgroundImageFix" result="effect1_dropShadow_2_71"/>
<feBlend mode="normal" in="SourceGraphic" in2="effect1_dropShadow_2_71" result="shape"/>
</filter>
<filter id="filter1_f_2_71" x="0.0747604" y="0.140129" width="508.365" height="426.341" filterUnits="userSpaceOnUse" color-interpolation-filters="sRGB">
<feFlood flood-opacity="0" result="BackgroundImageFix"/>
<feBlend mode="normal" in="SourceGraphic" in2="BackgroundImageFix" result="shape"/>
<feGaussianBlur stdDeviation="37.2407" result="effect1_foregroundBlur_2_71"/>
</filter>
<filter id="filter2_f_2_71" x="81.703" y="-313.778" width="656.793" height="778.298" filterUnits="userSpaceOnUse" color-interpolation-filters="sRGB">
<feFlood flood-opacity="0" result="BackgroundImageFix"/>
<feBlend mode="normal" in="SourceGraphic" in2="BackgroundImageFix" result="shape"/>
<feGaussianBlur stdDeviation="100.491" result="effect1_foregroundBlur_2_71"/>
</filter>
<filter id="filter3_f_2_71" x="106.069" y="-46.8947" width="617.198" height="719.824" filterUnits="userSpaceOnUse" color-interpolation-filters="sRGB">
<feFlood flood-opacity="0" result="BackgroundImageFix"/>
<feBlend mode="normal" in="SourceGraphic" in2="BackgroundImageFix" result="shape"/>
<feGaussianBlur stdDeviation="100.491" result="effect1_foregroundBlur_2_71"/>
</filter>
<filter id="filter4_f_2_71" x="-179.219" y="-105.369" width="656.793" height="778.298" filterUnits="userSpaceOnUse" color-interpolation-filters="sRGB">
<feFlood flood-opacity="0" result="BackgroundImageFix"/>
<feBlend mode="normal" in="SourceGraphic" in2="BackgroundImageFix" result="shape"/>
<feGaussianBlur stdDeviation="100.491" result="effect1_foregroundBlur_2_71"/>
</filter>
<filter id="filter5_f_2_71" x="-189.371" y="-423.23" width="744.105" height="907.241" filterUnits="userSpaceOnUse" color-interpolation-filters="sRGB">
<feFlood flood-opacity="0" result="BackgroundImageFix"/>
<feBlend mode="normal" in="SourceGraphic" in2="BackgroundImageFix" result="shape"/>
<feGaussianBlur stdDeviation="100.491" result="effect1_foregroundBlur_2_71"/>
</filter>
<filter id="filter6_f_2_71" x="165.589" y="-311.014" width="540.285" height="681.775" filterUnits="userSpaceOnUse" color-interpolation-filters="sRGB">
<feFlood flood-opacity="0" result="BackgroundImageFix"/>
<feBlend mode="normal" in="SourceGraphic" in2="BackgroundImageFix" result="shape"/>
<feGaussianBlur stdDeviation="60.8855" result="effect1_foregroundBlur_2_71"/>
</filter>
<filter id="filter7_f_2_71" x="173.865" y="46.1746" width="494.178" height="613.683" filterUnits="userSpaceOnUse" color-interpolation-filters="sRGB">
<feFlood flood-opacity="0" result="BackgroundImageFix"/>
<feBlend mode="normal" in="SourceGraphic" in2="BackgroundImageFix" result="shape"/>
<feGaussianBlur stdDeviation="60.8855" result="effect1_foregroundBlur_2_71"/>
</filter>
<filter id="filter8_f_2_71" x="-138.248" y="-68.3278" width="540.285" height="681.775" filterUnits="userSpaceOnUse" color-interpolation-filters="sRGB">
<feFlood flood-opacity="0" result="BackgroundImageFix"/>
<feBlend mode="normal" in="SourceGraphic" in2="BackgroundImageFix" result="shape"/>
<feGaussianBlur stdDeviation="60.8855" result="effect1_foregroundBlur_2_71"/>
</filter>
<filter id="filter9_f_2_71" x="-150.07" y="-438.468" width="641.958" height="831.926" filterUnits="userSpaceOnUse" color-interpolation-filters="sRGB">
<feFlood flood-opacity="0" result="BackgroundImageFix"/>
<feBlend mode="normal" in="SourceGraphic" in2="BackgroundImageFix" result="shape"/>
<feGaussianBlur stdDeviation="60.8855" result="effect1_foregroundBlur_2_71"/>
</filter>
<filter id="filter10_b_2_71" x="-38.4395" y="174.395" width="581" height="269.477" filterUnits="userSpaceOnUse" color-interpolation-filters="sRGB">
<feFlood flood-opacity="0" result="BackgroundImageFix"/>
<feGaussianBlur in="BackgroundImageFix" stdDeviation="40"/>
<feComposite in2="SourceAlpha" operator="in" result="effect1_backgroundBlur_2_71"/>
<feBlend mode="normal" in="SourceGraphic" in2="effect1_backgroundBlur_2_71" result="shape"/>
</filter>
<linearGradient id="paint0_linear_2_71" x1="41.5606" y1="245.528" x2="166.469" y2="421.287" gradientUnits="userSpaceOnUse">
<stop stop-color="white" stop-opacity="0.59"/>
<stop offset="1" stop-color="white" stop-opacity="0"/>
</linearGradient>
<clipPath id="clip0_2_71">
<rect width="197" height="40" fill="white" transform="translate(171 62)"/>
</clipPath>
<clipPath id="clip1_2_71">
<rect width="96" height="38" fill="white" transform="translate(326 135)"/>
</clipPath>
</defs>
</svg>
