<svg width="962" height="521" viewBox="0 0 962 521" fill="none" xmlns="http://www.w3.org/2000/svg">
<path d="M0.5 0H961.5V521H0.5V0Z" fill="white"/>
<path d="M241.131 203.559H232.339V230.771H228.754V203.559H220V200.329H241.131V203.559ZM255.001 209.035L244.997 234.249C243.215 238.747 240.71 241 237.476 241C236.572 241 235.814 240.91 235.205 240.723V237.6C235.953 237.854 236.642 237.981 237.262 237.981C239.02 237.981 240.338 236.937 241.212 234.841L242.952 230.723L234.456 209.035H238.322L244.207 225.761C244.28 225.973 244.425 226.527 244.654 227.415H244.779L245.2 225.803L251.379 209.035H255.001ZM260.697 227.632H260.613V240.771H257.127V209.034H260.613V212.856H260.697C262.412 209.97 264.914 208.524 268.218 208.524C271.021 208.524 273.206 209.496 274.781 211.441C276.355 213.385 277.135 215.994 277.135 219.265C277.135 222.9 276.252 225.817 274.485 228.003C272.717 230.189 270.291 231.281 267.224 231.281C264.418 231.275 262.228 230.061 260.7 227.627L260.697 227.632ZM260.613 218.863V221.902C260.613 223.701 261.199 225.22 262.365 226.479C263.531 227.738 265.015 228.357 266.817 228.357C268.924 228.357 270.58 227.546 271.777 225.935C272.974 224.324 273.57 222.078 273.57 219.209C273.57 216.788 273.008 214.894 271.891 213.522C270.773 212.151 269.241 211.466 267.348 211.466C265.325 211.466 263.693 212.172 262.462 213.579C261.23 214.985 260.613 216.74 260.613 218.863ZM298.266 220.772H282.911C282.966 223.193 283.618 225.057 284.863 226.375C286.109 227.693 287.825 228.349 290.004 228.349C292.451 228.349 294.704 227.539 296.758 225.928V229.195C294.849 230.581 292.319 231.278 289.176 231.278C286.101 231.278 283.689 230.293 281.933 228.318C280.176 226.342 279.283 223.566 279.283 219.985C279.283 216.604 280.243 213.847 282.159 211.72C284.074 209.593 286.461 208.526 289.306 208.526C292.15 208.526 294.35 209.445 295.909 211.284C297.468 213.122 298.247 215.677 298.247 218.946V220.769L298.266 220.772ZM294.68 217.82C294.668 215.794 294.178 214.245 293.224 213.13C292.27 212.014 290.941 211.452 289.243 211.452C287.6 211.452 286.204 212.038 285.056 213.216C283.909 214.393 283.186 215.927 282.93 217.823L294.68 217.82ZM301.296 229.539V225.337C301.737 225.758 302.262 226.147 302.878 226.484C303.494 226.82 304.125 227.112 304.823 227.341C305.522 227.57 306.189 227.757 306.872 227.886C307.554 228.015 308.197 228.079 308.773 228.079C310.78 228.079 312.284 227.674 313.274 226.859C314.264 226.044 314.759 224.873 314.759 223.346C314.759 222.525 314.596 221.813 314.264 221.202C313.913 220.567 313.448 220.002 312.892 219.535C312.306 219.033 311.617 218.55 310.819 218.092L308.247 216.637L305.528 215.001C304.726 214.485 303.989 213.872 303.335 213.178C302.711 212.514 302.223 211.76 301.866 210.919C301.509 210.078 301.336 209.09 301.336 207.959C301.336 206.572 301.614 205.368 302.17 204.344C302.727 203.32 303.456 202.474 304.368 201.808C305.28 201.141 306.307 200.648 307.467 200.323C308.621 199.998 309.815 199.833 311.013 199.834C313.762 199.834 315.762 200.197 317.018 200.915V204.924C315.375 203.68 313.277 203.059 310.681 203.059C309.969 203.059 309.255 203.143 308.543 203.3C307.83 203.458 307.196 203.729 306.641 204.098C306.086 204.467 305.632 204.939 305.282 205.524C304.931 206.108 304.756 206.809 304.756 207.649C304.756 208.428 304.889 209.098 305.156 209.665C305.422 210.232 305.813 210.746 306.334 211.217C306.855 211.687 307.481 212.136 308.231 212.575L310.803 214.018L313.64 215.716C314.535 216.308 315.319 216.966 315.991 217.69C316.663 218.415 317.199 219.212 317.592 220.09C317.984 220.967 318.184 221.975 318.184 223.103C318.184 224.599 317.913 225.876 317.381 226.912C316.87 227.92 316.124 228.79 315.207 229.449C314.295 230.103 313.243 230.571 312.047 230.862C310.851 231.153 309.6 231.298 308.278 231.298C307.837 231.298 307.293 231.262 306.647 231.183L304.668 230.845C303.991 230.694 303.358 230.513 302.753 230.295C302.145 230.061 301.665 229.827 301.297 229.547L301.296 229.539ZM336.727 229.773C335.055 230.775 333.072 231.284 330.784 231.284C327.685 231.284 325.178 230.276 323.275 228.258C321.372 226.241 320.418 223.628 320.418 220.415C320.418 216.835 321.446 213.96 323.498 211.787C325.549 209.613 328.288 208.526 331.719 208.526C333.628 208.526 335.314 208.884 336.776 209.588V213.172C335.162 212.035 333.435 211.474 331.593 211.474C329.37 211.474 327.546 212.271 326.126 213.865C324.706 215.459 323.994 217.548 323.994 220.138C323.994 222.685 324.664 224.697 326 226.164C327.336 227.632 329.133 228.374 331.382 228.374C333.279 228.374 335.061 227.746 336.735 226.484V229.787L336.727 229.773ZM350.205 212.553C349.597 212.089 348.719 211.852 347.555 211.852C346.069 211.852 344.824 212.553 343.829 213.956C342.835 215.358 342.333 217.265 342.333 219.686V230.764H338.847V209.029H342.333V213.51H342.417C342.913 211.983 343.667 210.787 344.688 209.936C345.709 209.085 346.844 208.65 348.107 208.65C349.011 208.65 349.707 208.747 350.191 208.962L350.205 212.553ZM354.203 203.517C353.58 203.517 353.05 203.305 352.608 202.883C352.167 202.46 351.951 201.923 351.951 201.27C351.951 200.617 352.169 200.081 352.608 199.647C353.048 199.212 353.581 199 354.203 199C354.837 199 355.382 199.218 355.827 199.647C356.046 199.855 356.219 200.108 356.334 200.387C356.45 200.667 356.505 200.968 356.498 201.27C356.498 201.893 356.275 202.423 355.827 202.864C355.38 203.292 354.836 203.518 354.203 203.518V203.517ZM355.902 230.771H352.417V209.037H355.902V230.771ZM361.52 227.632H361.436V240.771H357.95V209.034H361.436V212.856H361.52C363.235 209.97 365.737 208.524 369.041 208.524C371.844 208.524 374.029 209.496 375.604 211.441C377.178 213.385 377.958 215.994 377.958 219.265C377.958 222.9 377.075 225.817 375.308 228.003C373.54 230.189 371.099 231.281 368.047 231.281C365.241 231.275 363.051 230.061 361.523 227.627L361.52 227.632ZM361.436 218.865V221.903C361.436 223.703 362.022 225.222 363.188 226.481C364.354 227.74 365.838 228.358 367.64 228.358C369.747 228.358 371.403 227.548 372.6 225.937C373.797 224.326 374.393 222.079 374.393 219.211C374.393 216.79 373.831 214.895 372.714 213.524C371.596 212.153 370.064 211.467 368.171 211.467C366.148 211.467 364.516 212.173 363.285 213.58C362.053 214.987 361.436 216.743 361.436 218.87V218.865ZM391 230.561C390.179 231.013 389.098 231.237 387.75 231.237C383.946 231.237 382.035 229.112 382.035 224.868V212.008H378.294V209.037H382.035V203.73L385.521 202.608V209.038H391V212.01H385.521V224.256C385.521 225.711 385.77 226.755 386.264 227.378C386.759 228.001 387.582 228.313 388.727 228.313C389.603 228.313 390.364 228.071 390.998 227.588L391 230.561Z" fill="black"/>
<path d="M572.605 284H533.86C531.16 284 529 286.16 529 288.86V333.14C529 335.84 531.16 338 533.86 338H572.605C575.305 338 577.465 335.84 577.465 333.14V288.86C577.465 286.16 575.305 284 572.605 284ZM574.765 333.14C574.765 334.355 573.82 335.3 572.605 335.3H533.86C532.645 335.3 531.7 334.355 531.7 333.14V288.86C531.7 287.645 532.645 286.7 533.86 286.7H572.605C573.82 286.7 574.765 287.645 574.765 288.86V333.14V333.14ZM541.15 329.9L547.225 324.5L541.15 319.1V329.9ZM563.02 308.03C561.94 306.95 559.915 305.6 556.54 305.6C552.895 305.6 549.115 306.545 546.415 307.49V292.1H541.015V315.455L544.795 313.7C544.795 313.7 551.005 310.865 556.405 310.865C559.105 310.865 559.78 312.35 559.78 313.7V329.9H565.18V313.7C565.315 313.295 565.315 310.325 563.02 308.03ZM555.865 300.875H561.265C563.695 298.04 564.91 295.205 565.315 292.1H559.915C559.375 295.205 558.025 298.04 555.865 300.875ZM705.04 313.565V301.685H710.44V313.565C710.44 316.265 711.385 317.615 713.545 317.615C715.705 317.615 716.515 316.4 716.515 313.565V301.685H721.78V313.7C721.78 318.965 719.215 322.07 713.41 322.07C707.605 321.935 705.04 318.83 705.04 313.565ZM682.36 301.685H687.76V308.975L693.295 301.685H699.505L692.755 309.515L700.045 321.665H693.97L689.245 313.7L687.76 315.455V321.665H682.36V301.685ZM656.71 311.54C656.71 304.25 661.705 301.145 666.565 301.145C671.425 301.145 676.42 304.25 676.42 311.54C676.42 318.83 671.425 321.935 666.565 321.935C661.705 321.935 656.71 318.965 656.71 311.54ZM670.885 311.54C670.885 307.895 669.265 305.6 666.43 305.6C663.595 305.6 661.975 307.895 661.975 311.54C661.975 315.185 663.595 317.615 666.43 317.615C669.265 317.615 670.885 315.32 670.885 311.54ZM634.975 301.685H642.805C647.935 301.685 651.04 303.44 651.04 308.165C651.04 311.27 649.69 313.16 647.125 313.97L651.31 321.665H645.64L641.725 314.78H640.24V321.665H634.975V301.685ZM642.67 310.595C644.83 310.595 645.91 309.92 645.91 308.3C645.91 306.68 644.965 306.005 642.67 306.005H640.375V310.595H642.67V310.595ZM614.32 301.685H628.63V306.14H619.72V309.38H626.065V313.565H619.72V317.21H629.035V321.53H614.32V301.685V301.685ZM589.885 301.685H595.285V309.11H601.9V301.685H607.3V321.665H601.9V313.565H595.285V321.665H589.885V301.685Z" fill="black"/>
<path d="M386.121 322.678H390.816V305.443H386.121V322.678ZM385.921 300.987C385.921 299.456 386.773 298.69 388.476 298.69C390.179 298.69 391.032 299.456 391.032 300.987C391.032 301.717 390.818 302.285 390.393 302.691C389.967 303.097 389.328 303.299 388.476 303.299C386.773 303.299 385.921 302.529 385.921 300.987V300.987Z" fill="black"/>
<path fill-rule="evenodd" clip-rule="evenodd" d="M367.124 312.734C368.639 311.449 369.395 309.595 369.395 307.169C369.395 304.836 368.685 303.081 367.263 301.904C365.842 300.729 363.767 300.14 361.037 300.14H353.848V322.678H358.62V314.661H360.668C363.459 314.661 365.611 314.019 367.124 312.734ZM360.19 310.746H358.62V304.056H360.79C362.094 304.056 363.05 304.322 363.661 304.857C364.272 305.391 364.577 306.219 364.577 307.339C364.577 308.448 364.213 309.294 363.484 309.875C362.755 310.455 361.658 310.746 360.19 310.746V310.746Z" fill="black"/>
<path d="M383.63 305.257C383.209 305.165 382.681 305.119 382.045 305.119C380.977 305.119 379.989 305.414 379.082 306.005C378.178 306.591 377.434 307.394 376.918 308.341H376.688L375.995 305.443H372.439V322.678H377.134V313.906C377.134 312.519 377.552 311.439 378.388 310.668C379.225 309.898 380.392 309.512 381.891 309.512C382.435 309.512 382.896 309.564 383.276 309.666L383.63 305.257ZM405.505 321.599C406.732 320.673 407.345 319.328 407.345 317.56C407.345 316.707 407.196 315.972 406.899 315.355C406.601 314.738 406.139 314.194 405.513 313.721C404.888 313.249 403.902 312.74 402.557 312.195C401.049 311.589 400.072 311.131 399.625 310.823C399.179 310.515 398.955 310.15 398.955 309.728C398.955 308.978 399.648 308.603 401.034 308.603C401.813 308.603 402.578 308.721 403.327 308.957C404.076 309.194 404.882 309.497 405.744 309.867L407.16 306.476C405.2 305.572 403.184 305.119 401.11 305.119C398.935 305.119 397.255 305.538 396.07 306.376C394.884 307.213 394.291 308.397 394.291 309.929C394.291 310.823 394.432 311.576 394.715 312.187C394.997 312.799 395.448 313.341 396.07 313.814C396.69 314.287 397.663 314.8 398.986 315.355C399.91 315.746 400.649 316.087 401.203 316.38C401.757 316.674 402.148 316.935 402.374 317.167C402.599 317.398 402.712 317.699 402.712 318.069C402.712 319.055 401.86 319.548 400.156 319.548C399.325 319.548 398.363 319.409 397.27 319.132C396.177 318.855 395.195 318.511 394.322 318.099V321.984C395.119 322.321 395.95 322.572 396.801 322.732C397.683 322.901 398.75 322.986 400.003 322.986C402.444 322.986 404.279 322.524 405.505 321.598V321.599ZM425.944 322.678H421.249V312.611C421.249 311.368 421.041 310.435 420.626 309.813C420.21 309.192 419.556 308.88 418.663 308.88C417.463 308.88 416.591 309.322 416.046 310.206C415.502 311.09 415.231 312.544 415.231 314.569V322.678H410.535V305.443H414.122L414.753 307.647H415.015C415.477 306.856 416.144 306.236 417.016 305.789C417.889 305.342 418.889 305.119 420.018 305.119C422.594 305.119 424.338 305.962 425.252 307.647H425.667C426.129 306.845 426.809 306.224 427.707 305.782C428.605 305.34 429.618 305.119 430.747 305.119C432.697 305.119 434.173 305.62 435.173 306.622C436.173 307.624 436.673 309.23 436.673 311.439V322.678H431.963V312.611C431.963 311.368 431.755 310.435 431.34 309.813C430.924 309.192 430.27 308.88 429.377 308.88C428.228 308.88 427.368 309.292 426.798 310.114C426.229 310.936 425.944 312.241 425.944 314.029V322.678Z" fill="black"/>
<path fill-rule="evenodd" clip-rule="evenodd" d="M450.813 320.334L451.721 322.678H455V311.193C455 309.137 454.384 307.606 453.153 306.599C451.921 305.592 450.151 305.088 447.842 305.088C445.431 305.088 443.234 305.607 441.254 306.645L442.808 309.821C444.666 308.988 446.282 308.572 447.657 308.572C449.443 308.572 450.336 309.446 450.336 311.193V311.948L447.35 312.041C444.774 312.133 442.847 312.614 441.569 313.482C440.292 314.351 439.653 315.7 439.653 317.529C439.653 319.276 440.128 320.622 441.077 321.568C442.026 322.513 443.326 322.986 444.979 322.986C446.323 322.986 447.414 322.793 448.25 322.408C449.086 322.022 449.899 321.332 450.69 320.334H450.813ZM448.519 314.754L450.336 314.692V316.11C450.336 317.149 450.01 317.981 449.358 318.608C448.707 319.235 447.837 319.548 446.749 319.548C445.23 319.548 444.471 318.885 444.471 317.56C444.471 316.634 444.804 315.946 445.472 315.494C446.139 315.042 447.155 314.795 448.519 314.754V314.754ZM329.881 331.267L298.638 340.521C297.684 340.804 296.769 339.977 296.97 339.013L308.131 285.482C308.34 284.481 309.721 284.322 310.157 285.249L330.823 329.198C331.212 330.027 330.768 331.005 329.881 331.267V331.267ZM335.238 329.084L311.311 278.197V278.196C311.013 277.57 310.552 277.035 309.976 276.65C309.4 276.264 308.731 276.042 308.039 276.007C306.583 275.922 305.278 276.625 304.542 277.822L278.591 319.917C278.197 320.553 277.992 321.288 278 322.036C278.008 322.785 278.229 323.515 278.637 324.143L291.322 343.822C292.078 344.997 293.388 345.676 294.75 345.676C295.136 345.676 295.524 345.622 295.906 345.509L332.727 334.602C333.282 334.44 333.795 334.16 334.232 333.781C334.668 333.403 335.019 332.935 335.26 332.41C335.498 331.887 335.619 331.319 335.615 330.744C335.612 330.17 335.483 329.603 335.238 329.084V329.084Z" fill="black"/>
<path fill-rule="evenodd" clip-rule="evenodd" d="M481.167 198C471.522 198 465.494 202.822 463.083 212.467C466.7 207.644 470.919 205.836 475.742 207.042C478.493 207.729 480.459 209.726 482.636 211.935C486.182 215.534 490.286 219.7 499.25 219.7C508.894 219.7 514.922 214.878 517.333 205.233C513.717 210.056 509.497 211.864 504.675 210.658C501.924 209.971 499.957 207.974 497.781 205.765C494.235 202.166 490.131 198 481.167 198ZM463.083 219.7C453.439 219.7 447.411 224.522 445 234.167C448.617 229.344 452.836 227.536 457.658 228.742C460.41 229.43 462.376 231.426 464.553 233.635C468.098 237.234 472.203 241.4 481.167 241.4C490.811 241.4 496.839 236.578 499.25 226.933C495.633 231.756 491.414 233.564 486.592 232.358C483.84 231.671 481.874 229.674 479.697 227.465C476.152 223.866 472.047 219.7 463.083 219.7Z" fill="black"/>
<g clip-path="url(#clip0_2_162)">
<path d="M553.919 68.0331H622.547V80.7H595.323V147.339H581.71V80.7H553.919V68.0331Z" fill="black"/>
<path d="M441.052 68.0331V80.7H386.042V101.077H430.281V113.744H386.042V134.672H441.052V147.339H372.43V80.7H372.424V68.0331H441.052Z" fill="black"/>
<path d="M475.32 68.0661H457.506L521.312 147.372H539.178L507.271 107.746L539.127 68.1267L521.312 68.1542L498.352 96.6697L475.32 68.0661Z" fill="black"/>
<path d="M493.6 124.715L484.679 113.623L457.455 147.433H475.32L493.6 124.715Z" fill="black"/>
<path fill-rule="evenodd" clip-rule="evenodd" d="M372.907 147.339L309.015 68H292V147.306H305.612V84.9516L355.807 147.339H372.907Z" fill="black"/>
<path d="M625.607 146.855C624.61 146.855 623.762 146.509 623.052 145.819C622.342 145.128 621.991 144.292 622 143.301C621.991 142.338 622.342 141.511 623.052 140.82C623.762 140.129 624.61 139.784 625.607 139.784C626.566 139.784 627.405 140.129 628.115 140.82C628.835 141.511 629.194 142.338 629.204 143.301C629.194 143.955 629.028 144.555 628.696 145.091C628.355 145.637 627.922 146.064 627.377 146.373C626.842 146.691 626.252 146.855 625.607 146.855Z" fill="black"/>
<path d="M648.84 113.445H654.872V136.685C654.863 138.82 654.401 140.647 653.498 142.183C652.585 143.719 651.321 144.891 649.698 145.718C648.084 146.536 646.193 146.955 644.044 146.955C642.079 146.955 640.318 146.6 638.75 145.909C637.182 145.219 635.937 144.183 635.024 142.819C634.101 141.456 633.649 139.756 633.649 137.721H639.691C639.7 138.611 639.903 139.384 640.29 140.029C640.677 140.674 641.212 141.165 641.895 141.51C642.586 141.856 643.38 142.029 644.274 142.029C645.243 142.029 646.073 141.829 646.746 141.42C647.419 141.02 647.936 140.42 648.296 139.62C648.646 138.829 648.831 137.848 648.84 136.685V113.445Z" fill="black"/>
<path d="M679.691 122.534C679.544 121.125 678.898 120.025 677.773 119.244C676.638 118.453 675.172 118.062 673.373 118.062C672.11 118.062 671.022 118.253 670.118 118.626C669.214 119.008 668.513 119.516 668.033 120.162C667.554 120.807 667.314 121.543 667.295 122.37C667.295 123.061 667.461 123.661 667.784 124.161C668.107 124.67 668.54 125.097 669.103 125.442C669.656 125.797 670.274 126.087 670.948 126.324C671.63 126.56 672.313 126.76 672.995 126.924L676.14 127.696C677.404 127.987 678.631 128.378 679.802 128.878C680.973 129.368 682.034 129.996 682.965 130.75C683.897 131.504 684.635 132.413 685.179 133.476C685.723 134.54 686 135.785 686 137.221C686 139.157 685.502 140.856 684.496 142.328C683.491 143.792 682.043 144.937 680.143 145.764C678.252 146.582 675.965 147 673.272 147C670.671 147 668.402 146.6 666.493 145.8C664.575 145.01 663.08 143.846 662.001 142.319C660.922 140.793 660.341 138.929 660.258 136.739H666.235C666.318 137.884 666.687 138.839 667.314 139.611C667.95 140.374 668.78 140.938 669.795 141.32C670.819 141.692 671.962 141.883 673.226 141.883C674.545 141.883 675.707 141.683 676.712 141.292C677.708 140.902 678.492 140.356 679.055 139.647C679.627 138.948 679.913 138.121 679.922 137.175C679.913 136.312 679.654 135.594 679.156 135.03C678.649 134.467 677.948 133.994 677.053 133.613C676.15 133.231 675.098 132.886 673.899 132.586L670.081 131.622C667.323 130.922 665.137 129.859 663.541 128.432C661.937 127.005 661.143 125.115 661.143 122.743C661.143 120.798 661.678 119.089 662.758 117.626C663.827 116.163 665.294 115.027 667.148 114.218C669.011 113.4 671.114 113 673.456 113C675.836 113 677.92 113.4 679.719 114.218C681.517 115.027 682.929 116.154 683.952 117.59C684.976 119.026 685.511 120.671 685.539 122.534H679.691Z" fill="black"/>
</g>
<path d="M186.668 480.4C186.668 478.912 186.956 477.604 187.532 476.476C188.132 475.324 188.96 474.424 190.016 473.776C191.096 473.128 192.356 472.804 193.796 472.804C195.26 472.804 196.52 473.128 197.576 473.776C198.632 474.424 199.448 475.324 200.024 476.476C200.6 477.604 200.888 478.912 200.888 480.4C200.888 481.888 200.588 483.208 199.988 484.36C199.412 485.488 198.584 486.376 197.504 487.024C196.448 487.672 195.212 487.996 193.796 487.996C192.356 487.996 191.096 487.672 190.016 487.024C188.96 486.376 188.132 485.488 187.532 484.36C186.956 483.208 186.668 481.888 186.668 480.4ZM180.224 480.4C180.224 482.344 180.548 484.132 181.196 485.764C181.868 487.396 182.804 488.812 184.004 490.012C185.228 491.212 186.668 492.148 188.324 492.82C189.98 493.468 191.804 493.792 193.796 493.792C195.764 493.792 197.576 493.468 199.232 492.82C200.888 492.148 202.316 491.212 203.516 490.012C204.74 488.812 205.676 487.396 206.324 485.764C206.996 484.132 207.332 482.344 207.332 480.4C207.332 478.456 206.996 476.68 206.324 475.072C205.652 473.464 204.704 472.072 203.48 470.896C202.256 469.72 200.816 468.82 199.16 468.196C197.528 467.548 195.74 467.224 193.796 467.224C191.876 467.224 190.088 467.548 188.432 468.196C186.776 468.82 185.336 469.72 184.112 470.896C182.888 472.072 181.928 473.464 181.232 475.072C180.56 476.68 180.224 478.456 180.224 480.4ZM221.454 482.92V493H227.106V482.344C227.106 480.352 226.638 478.804 225.702 477.7C224.766 476.596 223.266 476.044 221.202 476.044C219.978 476.044 218.946 476.296 218.106 476.8C217.29 477.304 216.642 478.012 216.162 478.924V476.44H210.69V493H216.162V482.92C216.162 482.272 216.282 481.72 216.522 481.264C216.762 480.808 217.098 480.46 217.53 480.22C217.962 479.98 218.466 479.86 219.042 479.86C219.906 479.86 220.518 480.124 220.878 480.652C221.262 481.18 221.454 481.936 221.454 482.92ZM231.397 464.92V493H236.869V464.92H231.397ZM240.777 470.212C240.777 471.076 241.089 471.784 241.713 472.336C242.337 472.888 243.081 473.164 243.945 473.164C244.833 473.164 245.577 472.888 246.177 472.336C246.801 471.784 247.113 471.076 247.113 470.212C247.113 469.348 246.801 468.652 246.177 468.124C245.577 467.572 244.833 467.296 243.945 467.296C243.081 467.296 242.337 467.572 241.713 468.124C241.089 468.652 240.777 469.348 240.777 470.212ZM241.317 476.44V493H246.573V476.44H241.317ZM261.814 482.92V493H267.466V482.344C267.466 480.352 266.998 478.804 266.062 477.7C265.126 476.596 263.626 476.044 261.562 476.044C260.338 476.044 259.306 476.296 258.466 476.8C257.65 477.304 257.002 478.012 256.522 478.924V476.44H251.05V493H256.522V482.92C256.522 482.272 256.642 481.72 256.882 481.264C257.122 480.808 257.458 480.46 257.89 480.22C258.322 479.98 258.826 479.86 259.402 479.86C260.266 479.86 260.878 480.124 261.238 480.652C261.622 481.18 261.814 481.936 261.814 482.92ZM280.181 493.36C282.293 493.36 284.081 492.952 285.545 492.136C287.033 491.32 288.209 490.096 289.073 488.464L284.213 487.276C283.805 487.996 283.253 488.536 282.557 488.896C281.885 489.256 281.069 489.436 280.109 489.436C279.269 489.436 278.561 489.256 277.985 488.896C277.409 488.512 276.977 487.96 276.689 487.24C276.401 486.52 276.257 485.656 276.257 484.648C276.281 483.544 276.425 482.632 276.689 481.912C276.977 481.168 277.397 480.616 277.949 480.256C278.501 479.896 279.185 479.716 280.001 479.716C280.649 479.716 281.213 479.86 281.693 480.148C282.173 480.436 282.545 480.844 282.809 481.372C283.073 481.9 283.205 482.524 283.205 483.244C283.205 483.412 283.157 483.628 283.061 483.892C282.989 484.132 282.893 484.336 282.773 484.504L284.069 482.848H273.845V485.872H288.965C289.013 485.704 289.037 485.5 289.037 485.26C289.037 484.996 289.037 484.732 289.037 484.468C289.037 482.692 288.689 481.18 287.993 479.932C287.297 478.684 286.289 477.736 284.969 477.088C283.649 476.416 282.029 476.08 280.109 476.08C278.189 476.08 276.521 476.428 275.105 477.124C273.713 477.82 272.645 478.816 271.901 480.112C271.157 481.408 270.785 482.944 270.785 484.72C270.785 486.472 271.169 487.996 271.937 489.292C272.705 490.588 273.785 491.596 275.177 492.316C276.593 493.012 278.261 493.36 280.181 493.36ZM306.499 484.144L302.25 487.204C302.827 488.404 303.631 489.508 304.663 490.516C305.695 491.524 306.907 492.328 308.299 492.928C309.715 493.504 311.239 493.792 312.871 493.792C314.047 493.792 315.187 493.612 316.291 493.252C317.419 492.916 318.415 492.412 319.279 491.74C320.167 491.068 320.863 490.24 321.367 489.256C321.895 488.248 322.159 487.108 322.159 485.836C322.159 484.78 321.991 483.844 321.655 483.028C321.319 482.212 320.851 481.492 320.251 480.868C319.675 480.244 319.003 479.716 318.235 479.284C317.467 478.828 316.639 478.432 315.751 478.096C314.575 477.688 313.567 477.304 312.727 476.944C311.911 476.584 311.275 476.188 310.819 475.756C310.387 475.324 310.171 474.82 310.171 474.244C310.171 473.692 310.399 473.236 310.855 472.876C311.311 472.492 311.971 472.3 312.835 472.3C313.483 472.3 314.083 472.432 314.635 472.696C315.211 472.936 315.727 473.284 316.183 473.74C316.663 474.172 317.083 474.688 317.443 475.288L322.087 472.696C321.655 471.832 321.031 470.98 320.215 470.14C319.399 469.3 318.367 468.604 317.119 468.052C315.895 467.5 314.443 467.224 312.763 467.224C311.131 467.224 309.643 467.512 308.299 468.088C306.979 468.64 305.923 469.456 305.131 470.536C304.363 471.616 303.979 472.9 303.979 474.388C303.979 475.636 304.207 476.704 304.663 477.592C305.119 478.456 305.695 479.2 306.391 479.824C307.087 480.424 307.819 480.916 308.587 481.3C309.379 481.684 310.075 481.984 310.675 482.2C311.899 482.656 312.883 483.064 313.627 483.424C314.371 483.784 314.911 484.168 315.247 484.576C315.583 484.96 315.751 485.476 315.751 486.124C315.751 486.892 315.463 487.504 314.887 487.96C314.311 488.392 313.579 488.608 312.691 488.608C311.851 488.608 311.047 488.428 310.279 488.068C309.535 487.708 308.839 487.192 308.191 486.52C307.567 485.848 307.003 485.056 306.499 484.144ZM331.159 464.92H325.687V493H331.159V464.92ZM336.451 482.92V493H341.887V482.128C341.887 480.76 341.695 479.608 341.311 478.672C340.927 477.736 340.315 477.028 339.475 476.548C338.659 476.068 337.567 475.828 336.199 475.828C334.831 475.828 333.702 476.152 332.814 476.8C331.951 477.424 331.303 478.276 330.871 479.356C330.439 480.412 330.223 481.6 330.223 482.92H331.159C331.159 482.272 331.279 481.732 331.519 481.3C331.759 480.844 332.095 480.496 332.527 480.256C332.959 479.992 333.463 479.86 334.039 479.86C334.927 479.86 335.551 480.124 335.911 480.652C336.271 481.18 336.451 481.936 336.451 482.92ZM345.211 484.72C345.211 486.448 345.619 487.96 346.435 489.256C347.251 490.552 348.379 491.56 349.819 492.28C351.259 493 352.879 493.36 354.679 493.36C356.479 493.36 358.087 493 359.503 492.28C360.943 491.56 362.071 490.552 362.887 489.256C363.727 487.96 364.147 486.448 364.147 484.72C364.147 482.968 363.727 481.444 362.887 480.148C362.071 478.852 360.943 477.844 359.503 477.124C358.087 476.404 356.479 476.044 354.679 476.044C352.879 476.044 351.259 476.404 349.819 477.124C348.379 477.844 347.251 478.852 346.435 480.148C345.619 481.444 345.211 482.968 345.211 484.72ZM350.791 484.72C350.791 483.856 350.971 483.112 351.331 482.488C351.691 481.864 352.159 481.384 352.735 481.048C353.311 480.712 353.959 480.544 354.679 480.544C355.375 480.544 356.011 480.712 356.587 481.048C357.187 481.384 357.655 481.864 357.991 482.488C358.351 483.112 358.531 483.856 358.531 484.72C358.531 485.584 358.351 486.328 357.991 486.952C357.655 487.552 357.187 488.02 356.587 488.356C356.011 488.692 355.375 488.86 354.679 488.86C353.959 488.86 353.311 488.692 352.735 488.356C352.159 488.02 351.691 487.552 351.331 486.952C350.971 486.328 350.791 485.584 350.791 484.72ZM372.817 500.92V476.44H367.381V500.92H372.817ZM386.353 484.72C386.353 482.776 385.969 481.156 385.201 479.86C384.457 478.54 383.485 477.544 382.285 476.872C381.109 476.2 379.837 475.864 378.469 475.864C377.029 475.864 375.781 476.236 374.725 476.98C373.693 477.7 372.901 478.72 372.349 480.04C371.797 481.36 371.521 482.92 371.521 484.72C371.521 486.496 371.797 488.056 372.349 489.4C372.901 490.72 373.693 491.752 374.725 492.496C375.781 493.216 377.029 493.576 378.469 493.576C379.837 493.576 381.109 493.24 382.285 492.568C383.485 491.896 384.457 490.9 385.201 489.58C385.969 488.26 386.353 486.64 386.353 484.72ZM380.629 484.72C380.629 485.584 380.449 486.316 380.089 486.916C379.729 487.516 379.249 487.972 378.649 488.284C378.049 488.596 377.389 488.752 376.669 488.752C376.045 488.752 375.433 488.608 374.833 488.32C374.257 488.008 373.777 487.552 373.393 486.952C373.009 486.352 372.817 485.608 372.817 484.72C372.817 483.832 373.009 483.088 373.393 482.488C373.777 481.888 374.257 481.444 374.833 481.156C375.433 480.844 376.045 480.688 376.669 480.688C377.389 480.688 378.049 480.844 378.649 481.156C379.249 481.468 379.729 481.924 380.089 482.524C380.449 483.124 380.629 483.856 380.629 484.72Z" fill="black"/>
<path fill-rule="evenodd" clip-rule="evenodd" d="M601 193L625 206.75V234.25L601 248L577 234.25V206.75L601 193ZM579.693 208.293V228.492L597.322 198.193L579.693 208.293ZM601 197.215L580.678 232.143H621.322L601 197.215ZM618.629 234.815H583.371L601 244.914L618.629 234.815ZM622.307 228.492L604.678 198.193L622.307 208.293V228.492Z" fill="black"/>
<path d="M601 200C604.314 200 607 197.538 607 194.5C607 191.462 604.314 189 601 189C597.686 189 595 191.462 595 194.5C595 197.538 597.686 200 601 200Z" fill="black"/>
<path d="M623.5 213C626.538 213 629 210.538 629 207.5C629 204.462 626.538 202 623.5 202C620.462 202 618 204.462 618 207.5C618 210.538 620.462 213 623.5 213Z" fill="black"/>
<path d="M623.5 239C626.538 239 629 236.538 629 233.5C629 230.462 626.538 228 623.5 228C620.462 228 618 230.462 618 233.5C618 236.538 620.462 239 623.5 239Z" fill="black"/>
<path d="M601 252C604.314 252 607 249.538 607 246.5C607 243.462 604.314 241 601 241C597.686 241 595 243.462 595 246.5C595 249.538 597.686 252 601 252Z" fill="black"/>
<path d="M578.5 239C581.538 239 584 236.538 584 233.5C584 230.462 581.538 228 578.5 228C575.462 228 573 230.462 573 233.5C573 236.538 575.462 239 578.5 239Z" fill="black"/>
<path d="M578.5 213C581.538 213 584 210.538 584 207.5C584 204.462 581.538 202 578.5 202C575.462 202 573 204.462 573 207.5C573 210.538 575.462 213 578.5 213Z" fill="black"/>
<path d="M657.959 234C654.552 234 651.907 233.033 650.026 231.1C648.145 229.167 647.15 226.575 647.041 223.326C647.014 222.521 647 221.245 647 219.5C647 217.755 647.014 216.479 647.041 215.674C647.15 212.425 648.145 209.833 650.026 207.9C651.907 205.967 654.552 205 657.959 205C660.277 205 662.226 205.43 663.807 206.289C665.388 207.148 666.56 208.169 667.324 209.35C668.114 210.505 668.537 211.538 668.591 212.451V212.532C668.591 212.747 668.509 212.921 668.346 213.056C668.182 213.19 667.978 213.257 667.732 213.257H666.833C666.588 213.257 666.41 213.203 666.301 213.096C666.192 212.988 666.083 212.774 665.974 212.451C665.511 211.028 664.611 209.833 663.275 208.867C661.967 207.9 660.195 207.417 657.959 207.417C655.424 207.417 653.42 208.101 651.948 209.471C650.503 210.84 649.726 212.975 649.617 215.875C649.59 216.681 649.577 217.889 649.577 219.5C649.577 221.111 649.59 222.319 649.617 223.125C649.726 226.025 650.503 228.16 651.948 229.529C653.42 230.899 655.424 231.583 657.959 231.583C660.494 231.583 662.539 230.872 664.093 229.449C665.647 228.025 666.423 225.918 666.423 223.125V221.071H659.309C659.036 221.071 658.818 220.99 658.655 220.829C658.491 220.641 658.409 220.413 658.409 220.144V219.581C658.409 219.312 658.491 219.097 658.655 218.936C658.818 218.748 659.036 218.654 659.309 218.654H668.059C668.359 218.654 668.591 218.735 668.755 218.896C668.918 219.057 669 219.285 669 219.581V223.125C669 225.273 668.564 227.166 667.691 228.804C666.819 230.442 665.551 231.718 663.889 232.631C662.226 233.544 660.249 234 657.959 234Z" fill="black"/>
<path d="M674.859 234C674.599 234 674.391 233.919 674.234 233.758C674.078 233.596 674 233.381 674 233.112V213.929C674 213.66 674.078 213.444 674.234 213.283C674.391 213.094 674.599 213 674.859 213H675.484C675.745 213 675.953 213.094 676.109 213.283C676.292 213.444 676.383 213.66 676.383 213.929V215.787C677.321 213.929 679.091 213 681.696 213H683.141C683.401 213 683.609 213.081 683.766 213.242C683.922 213.404 684 213.619 684 213.888V214.454C684 214.723 683.922 214.938 683.766 215.1C683.609 215.262 683.401 215.342 683.141 215.342H681.461C679.899 215.342 678.662 215.813 677.75 216.756C676.839 217.698 676.383 218.977 676.383 220.592V233.112C676.383 233.381 676.292 233.596 676.109 233.758C675.953 233.919 675.745 234 675.484 234H674.859Z" fill="black"/>
<path d="M693.298 234C691.993 234 690.783 233.741 689.669 233.222C688.555 232.704 687.658 232.004 686.978 231.122C686.326 230.241 686 229.268 686 228.206C686 226.494 686.72 225.094 688.161 224.006C689.629 222.917 691.598 222.217 694.072 221.906L700.513 221.05V219.689C700.513 218.263 700.051 217.174 699.127 216.422C698.23 215.644 696.844 215.256 694.969 215.256C693.583 215.256 692.441 215.515 691.544 216.033C690.675 216.552 690.118 217.174 689.873 217.9C689.764 218.211 689.629 218.432 689.465 218.561C689.329 218.665 689.139 218.717 688.895 218.717H688.324C688.079 218.717 687.862 218.639 687.672 218.483C687.509 218.302 687.427 218.094 687.427 217.861C687.427 217.291 687.699 216.63 688.242 215.878C688.786 215.1 689.629 214.426 690.77 213.856C691.911 213.285 693.311 213 694.969 213C697.876 213 699.942 213.661 701.165 214.983C702.388 216.306 703 217.913 703 219.806V232.756C703 233.015 702.918 233.222 702.755 233.378C702.592 233.533 702.374 233.611 702.103 233.611H701.41C701.138 233.611 700.921 233.533 700.758 233.378C700.594 233.222 700.513 233.015 700.513 232.756V230.928C699.915 231.783 699.032 232.509 697.863 233.106C696.722 233.702 695.2 234 693.298 234ZM693.705 231.744C695.689 231.744 697.319 231.122 698.597 229.878C699.874 228.633 700.513 226.844 700.513 224.511V223.189L695.254 223.889C693.026 224.174 691.341 224.667 690.199 225.367C689.058 226.067 688.487 226.948 688.487 228.011C688.487 229.204 689.003 230.124 690.036 230.772C691.096 231.42 692.319 231.744 693.705 231.744Z" fill="black"/>
<path d="M709.892 241C709.622 241 709.405 240.922 709.243 240.767C709.081 240.611 709 240.404 709 240.144V214.244C709 213.985 709.081 213.778 709.243 213.622C709.405 213.467 709.622 213.389 709.892 213.389H710.581C710.852 213.389 711.068 213.467 711.23 213.622C711.392 213.778 711.473 213.985 711.473 214.244V216.072C713.041 214.024 715.311 213 718.284 213C721.203 213 723.351 213.894 724.73 215.683C726.135 217.446 726.879 219.624 726.96 222.217C726.987 222.476 727 222.904 727 223.5C727 224.096 726.987 224.524 726.96 224.783C726.879 227.376 726.135 229.567 724.73 231.356C723.351 233.118 721.203 234 718.284 234C715.338 234 713.068 232.976 711.473 230.928V240.144C711.473 240.404 711.392 240.611 711.23 240.767C711.068 240.922 710.852 241 710.581 241H709.892ZM718.041 231.744C720.23 231.744 721.824 231.083 722.825 229.761C723.851 228.413 724.405 226.689 724.486 224.589C724.514 224.33 724.527 223.967 724.527 223.5C724.527 221.089 724.041 219.118 723.068 217.589C722.095 216.033 720.419 215.256 718.041 215.256C715.906 215.256 714.298 215.943 713.216 217.317C712.136 218.665 711.554 220.259 711.473 222.1L711.432 223.617L711.473 225.133C711.501 226.248 711.757 227.311 712.243 228.322C712.73 229.307 713.459 230.124 714.432 230.772C715.405 231.42 716.609 231.744 718.041 231.744Z" fill="black"/>
<path d="M732.915 234C732.638 234 732.416 233.918 732.249 233.755C732.083 233.592 732 233.374 732 233.101V205.899C732 205.626 732.083 205.408 732.249 205.245C732.416 205.082 732.638 205 732.915 205H733.622C733.899 205 734.12 205.082 734.287 205.245C734.453 205.408 734.536 205.626 734.536 205.899V215.579C735.367 214.517 736.31 213.714 737.363 213.169C738.444 212.624 739.829 212.352 741.52 212.352C744.235 212.352 746.328 213.21 747.796 214.925C749.266 216.614 750 218.806 750 221.501V233.101C750 233.374 749.917 233.592 749.751 233.755C749.584 233.918 749.363 234 749.085 234H748.378C748.102 234 747.88 233.918 747.713 233.755C747.547 233.592 747.464 233.374 747.464 233.101V221.706C747.464 219.5 746.91 217.785 745.801 216.559C744.72 215.334 743.155 214.721 741.104 214.721C739.109 214.721 737.515 215.347 736.323 216.6C735.132 217.825 734.536 219.527 734.536 221.706V233.101C734.536 233.374 734.453 233.592 734.287 233.755C734.12 233.918 733.899 234 733.622 234H732.915Z" fill="black"/>
<path d="M774.023 236C773.627 236 773.205 235.693 772.757 235.08L771.017 232.64C769.435 233.413 767.589 233.8 765.48 233.8C758.704 233.8 755.224 230.12 755.039 222.76C755.013 221.96 755 220.84 755 219.4C755 217.96 755.013 216.84 755.039 216.04C755.145 212.413 756.12 209.667 757.966 207.8C759.812 205.933 762.316 205 765.48 205C768.644 205 771.148 205.933 772.994 207.8C774.84 209.667 775.815 212.413 775.921 216.04C775.973 217.64 776 218.76 776 219.4C776 220.04 775.973 221.16 775.921 222.76C775.789 226.573 774.827 229.373 773.034 231.16L775.565 234.76C775.644 234.92 775.684 235.067 775.684 235.2C775.684 235.413 775.605 235.6 775.446 235.76C775.288 235.92 775.103 236 774.893 236H774.023ZM765.48 231.4C767.853 231.4 769.738 230.68 771.136 229.24C772.56 227.773 773.324 225.547 773.43 222.56C773.482 220.96 773.509 219.907 773.509 219.4C773.509 218.893 773.482 217.84 773.43 216.24C773.324 213.253 772.56 211.04 771.136 209.6C769.712 208.133 767.826 207.4 765.48 207.4C763.134 207.4 761.249 208.133 759.825 209.6C758.401 211.04 757.636 213.253 757.531 216.24C757.505 217.04 757.491 218.093 757.491 219.4C757.491 220.707 757.505 221.76 757.531 222.56C757.636 225.547 758.388 227.773 759.785 229.24C761.209 230.68 763.107 231.4 765.48 231.4Z" fill="black"/>
<path d="M783.868 234C783.605 234 783.394 233.92 783.237 233.76C783.079 233.6 783 233.387 783 233.12V206.88C783 206.613 783.079 206.4 783.237 206.24C783.394 206.08 783.605 206 783.868 206H784.617C784.881 206 785.091 206.08 785.249 206.24C785.406 206.4 785.485 206.613 785.485 206.88V231.6H799.093C799.382 231.6 799.606 231.68 799.763 231.84C799.921 232 800 232.227 800 232.52V233.12C800 233.387 799.908 233.6 799.724 233.76C799.566 233.92 799.356 234 799.093 234H783.868Z" fill="black"/>
<defs>
<clipPath id="clip0_2_162">
<rect width="394" height="80" fill="white" transform="translate(292 68)"/>
</clipPath>
</defs>
</svg>
