<svg width="673" height="521" viewBox="0 0 673 521" fill="none" xmlns="http://www.w3.org/2000/svg">
<rect width="673" height="521" fill="white"/>
<path d="M88.131 203.559H79.3394V230.771H75.7542V203.559H67V200.329H88.131V203.559ZM102.001 209.035L91.9969 234.249C90.2152 238.747 87.7102 241 84.4757 241C83.5716 241 82.814 240.91 82.2045 240.723V237.6C82.9527 237.854 83.6417 237.981 84.2621 237.981C86.0204 237.981 87.3376 236.937 88.2121 234.841L89.9517 230.723L81.4563 209.035H85.3221L91.2066 225.761C91.2798 225.973 91.4248 226.527 91.6539 227.415H91.7786L92.1995 225.803L98.3786 209.035H102.001ZM107.697 227.632H107.613V240.771H104.127V209.034H107.613V212.856H107.697C109.412 209.97 111.914 208.524 115.218 208.524C118.021 208.524 120.206 209.496 121.781 211.441C123.355 213.385 124.135 215.994 124.135 219.265C124.135 222.9 123.252 225.817 121.485 228.003C119.717 230.189 117.291 231.281 114.224 231.281C111.418 231.275 109.228 230.061 107.7 227.627L107.697 227.632ZM107.613 218.863V221.902C107.613 223.701 108.199 225.22 109.365 226.479C110.531 227.738 112.015 228.357 113.817 228.357C115.924 228.357 117.58 227.546 118.777 225.935C119.974 224.324 120.57 222.078 120.57 219.209C120.57 216.788 120.008 214.894 118.891 213.522C117.773 212.151 116.241 211.466 114.348 211.466C112.325 211.466 110.693 212.172 109.462 213.579C108.23 214.985 107.613 216.74 107.613 218.863ZM145.266 220.772H129.911C129.966 223.193 130.618 225.057 131.863 226.375C133.109 227.693 134.825 228.349 137.004 228.349C139.451 228.349 141.704 227.539 143.758 225.928V229.195C141.849 230.581 139.319 231.278 136.176 231.278C133.101 231.278 130.689 230.293 128.933 228.318C127.176 226.342 126.283 223.566 126.283 219.985C126.283 216.604 127.243 213.847 129.159 211.72C131.074 209.593 133.461 208.526 136.306 208.526C139.15 208.526 141.35 209.445 142.909 211.284C144.468 213.122 145.247 215.677 145.247 218.946V220.769L145.266 220.772ZM141.68 217.82C141.668 215.794 141.178 214.245 140.224 213.13C139.27 212.014 137.941 211.452 136.243 211.452C134.6 211.452 133.204 212.038 132.056 213.216C130.909 214.393 130.186 215.927 129.93 217.823L141.68 217.82ZM148.296 229.539V225.337C148.737 225.758 149.262 226.147 149.878 226.484C150.494 226.82 151.125 227.112 151.823 227.341C152.522 227.57 153.189 227.757 153.872 227.886C154.554 228.015 155.197 228.079 155.773 228.079C157.78 228.079 159.284 227.674 160.274 226.859C161.264 226.044 161.759 224.873 161.759 223.346C161.759 222.525 161.596 221.813 161.264 221.202C160.913 220.567 160.448 220.002 159.892 219.535C159.306 219.033 158.617 218.55 157.819 218.092L155.247 216.637L152.528 215.001C151.726 214.485 150.989 213.872 150.335 213.178C149.711 212.514 149.223 211.76 148.866 210.919C148.509 210.078 148.336 209.09 148.336 207.959C148.336 206.572 148.614 205.368 149.17 204.344C149.727 203.32 150.456 202.474 151.368 201.808C152.28 201.141 153.307 200.648 154.467 200.323C155.621 199.998 156.815 199.833 158.013 199.834C160.762 199.834 162.762 200.197 164.018 200.915V204.924C162.375 203.68 160.277 203.059 157.681 203.059C156.969 203.059 156.255 203.143 155.543 203.3C154.83 203.458 154.196 203.729 153.641 204.098C153.086 204.467 152.632 204.939 152.282 205.524C151.931 206.108 151.756 206.809 151.756 207.649C151.756 208.428 151.889 209.098 152.156 209.665C152.422 210.232 152.813 210.746 153.334 211.217C153.855 211.687 154.481 212.136 155.231 212.575L157.803 214.018L160.64 215.716C161.535 216.308 162.319 216.966 162.991 217.69C163.663 218.415 164.199 219.212 164.592 220.09C164.984 220.967 165.184 221.975 165.184 223.103C165.184 224.599 164.913 225.876 164.381 226.912C163.87 227.92 163.124 228.79 162.207 229.449C161.295 230.103 160.243 230.571 159.047 230.862C157.851 231.153 156.6 231.298 155.278 231.298C154.837 231.298 154.293 231.262 153.647 231.183L151.668 230.845C150.991 230.694 150.358 230.513 149.753 230.295C149.145 230.061 148.665 229.827 148.297 229.547L148.296 229.539ZM183.727 229.773C182.055 230.775 180.072 231.284 177.784 231.284C174.685 231.284 172.178 230.276 170.275 228.258C168.372 226.241 167.418 223.628 167.418 220.415C167.418 216.835 168.446 213.96 170.498 211.787C172.549 209.613 175.288 208.526 178.719 208.526C180.628 208.526 182.314 208.884 183.776 209.588V213.172C182.162 212.035 180.435 211.474 178.593 211.474C176.37 211.474 174.546 212.271 173.126 213.865C171.706 215.459 170.994 217.548 170.994 220.138C170.994 222.685 171.664 224.697 173 226.164C174.336 227.632 176.133 228.374 178.382 228.374C180.279 228.374 182.061 227.746 183.735 226.484V229.787L183.727 229.773ZM197.205 212.553C196.597 212.089 195.719 211.852 194.555 211.852C193.069 211.852 191.824 212.553 190.829 213.956C189.835 215.358 189.333 217.265 189.333 219.686V230.764H185.847V209.029H189.333V213.51H189.417C189.913 211.983 190.667 210.787 191.688 209.936C192.709 209.085 193.844 208.65 195.107 208.65C196.011 208.65 196.707 208.747 197.191 208.962L197.205 212.553ZM201.203 203.517C200.58 203.517 200.05 203.305 199.608 202.883C199.167 202.46 198.951 201.923 198.951 201.27C198.951 200.617 199.169 200.081 199.608 199.647C200.048 199.212 200.581 199 201.203 199C201.837 199 202.382 199.218 202.827 199.647C203.046 199.855 203.219 200.108 203.334 200.387C203.45 200.667 203.505 200.968 203.498 201.27C203.498 201.893 203.275 202.423 202.827 202.864C202.38 203.292 201.836 203.518 201.203 203.518V203.517ZM202.902 230.771H199.417V209.037H202.902V230.771ZM208.52 227.632H208.436V240.771H204.95V209.034H208.436V212.856H208.52C210.235 209.97 212.737 208.524 216.041 208.524C218.844 208.524 221.029 209.496 222.604 211.441C224.178 213.385 224.958 215.994 224.958 219.265C224.958 222.9 224.075 225.817 222.308 228.003C220.54 230.189 218.099 231.281 215.047 231.281C212.241 231.275 210.051 230.061 208.523 227.627L208.52 227.632ZM208.436 218.865V221.903C208.436 223.703 209.022 225.222 210.188 226.481C211.354 227.74 212.838 228.358 214.64 228.358C216.747 228.358 218.403 227.548 219.6 225.937C220.797 224.326 221.393 222.079 221.393 219.211C221.393 216.79 220.831 214.895 219.714 213.524C218.596 212.153 217.064 211.467 215.171 211.467C213.148 211.467 211.516 212.173 210.285 213.58C209.053 214.987 208.436 216.743 208.436 218.87V218.865ZM238 230.561C237.179 231.013 236.098 231.237 234.75 231.237C230.946 231.237 229.035 229.112 229.035 224.868V212.008H225.294V209.037H229.035V203.73L232.521 202.608V209.038H238V212.01H232.521V224.256C232.521 225.711 232.77 226.755 233.264 227.378C233.759 228.001 234.582 228.313 235.727 228.313C236.603 228.313 237.364 228.071 237.998 227.588L238 230.561Z" fill="black"/>
<path d="M419.605 284H380.86C378.16 284 376 286.16 376 288.86V333.14C376 335.84 378.16 338 380.86 338H419.605C422.305 338 424.465 335.84 424.465 333.14V288.86C424.465 286.16 422.305 284 419.605 284ZM421.765 333.14C421.765 334.355 420.82 335.3 419.605 335.3H380.86C379.645 335.3 378.7 334.355 378.7 333.14V288.86C378.7 287.645 379.645 286.7 380.86 286.7H419.605C420.82 286.7 421.765 287.645 421.765 288.86V333.14V333.14ZM388.15 329.9L394.225 324.5L388.15 319.1V329.9ZM410.02 308.03C408.94 306.95 406.915 305.6 403.54 305.6C399.895 305.6 396.115 306.545 393.415 307.49V292.1H388.015V315.455L391.795 313.7C391.795 313.7 398.005 310.865 403.405 310.865C406.105 310.865 406.78 312.35 406.78 313.7V329.9H412.18V313.7C412.315 313.295 412.315 310.325 410.02 308.03ZM402.865 300.875H408.265C410.695 298.04 411.91 295.205 412.315 292.1H406.915C406.375 295.205 405.025 298.04 402.865 300.875ZM552.04 313.565V301.685H557.44V313.565C557.44 316.265 558.385 317.615 560.545 317.615C562.705 317.615 563.515 316.4 563.515 313.565V301.685H568.78V313.7C568.78 318.965 566.215 322.07 560.41 322.07C554.605 321.935 552.04 318.83 552.04 313.565ZM529.36 301.685H534.76V308.975L540.295 301.685H546.505L539.755 309.515L547.045 321.665H540.97L536.245 313.7L534.76 315.455V321.665H529.36V301.685ZM503.71 311.54C503.71 304.25 508.705 301.145 513.565 301.145C518.425 301.145 523.42 304.25 523.42 311.54C523.42 318.83 518.425 321.935 513.565 321.935C508.705 321.935 503.71 318.965 503.71 311.54ZM517.885 311.54C517.885 307.895 516.265 305.6 513.43 305.6C510.595 305.6 508.975 307.895 508.975 311.54C508.975 315.185 510.595 317.615 513.43 317.615C516.265 317.615 517.885 315.32 517.885 311.54ZM481.975 301.685H489.805C494.935 301.685 498.04 303.44 498.04 308.165C498.04 311.27 496.69 313.16 494.125 313.97L498.31 321.665H492.64L488.725 314.78H487.24V321.665H481.975V301.685ZM489.67 310.595C491.83 310.595 492.91 309.92 492.91 308.3C492.91 306.68 491.965 306.005 489.67 306.005H487.375V310.595H489.67V310.595ZM461.32 301.685H475.63V306.14H466.72V309.38H473.065V313.565H466.72V317.21H476.035V321.53H461.32V301.685V301.685ZM436.885 301.685H442.285V309.11H448.9V301.685H454.3V321.665H448.9V313.565H442.285V321.665H436.885V301.685Z" fill="black"/>
<path d="M233.121 322.678H237.816V305.443H233.121V322.678ZM232.921 300.987C232.921 299.456 233.773 298.69 235.476 298.69C237.179 298.69 238.032 299.456 238.032 300.987C238.032 301.717 237.818 302.285 237.393 302.691C236.967 303.097 236.328 303.299 235.476 303.299C233.773 303.299 232.921 302.529 232.921 300.987V300.987Z" fill="black"/>
<path fill-rule="evenodd" clip-rule="evenodd" d="M214.124 312.734C215.639 311.449 216.395 309.595 216.395 307.169C216.395 304.836 215.685 303.081 214.263 301.904C212.842 300.729 210.767 300.14 208.037 300.14H200.848V322.678H205.62V314.661H207.668C210.459 314.661 212.611 314.019 214.124 312.734ZM207.19 310.746H205.62V304.056H207.79C209.094 304.056 210.05 304.322 210.661 304.857C211.272 305.391 211.577 306.219 211.577 307.339C211.577 308.448 211.213 309.294 210.484 309.875C209.755 310.455 208.658 310.746 207.19 310.746V310.746Z" fill="black"/>
<path d="M230.63 305.257C230.209 305.165 229.681 305.119 229.045 305.119C227.977 305.119 226.989 305.414 226.082 306.005C225.178 306.591 224.434 307.394 223.918 308.341H223.688L222.995 305.443H219.439V322.678H224.134V313.906C224.134 312.519 224.552 311.439 225.388 310.668C226.225 309.898 227.392 309.512 228.891 309.512C229.435 309.512 229.896 309.564 230.276 309.666L230.63 305.257ZM252.505 321.599C253.732 320.673 254.345 319.328 254.345 317.56C254.345 316.707 254.196 315.972 253.899 315.355C253.601 314.738 253.139 314.194 252.513 313.721C251.888 313.249 250.902 312.74 249.557 312.195C248.049 311.589 247.072 311.131 246.625 310.823C246.179 310.515 245.955 310.15 245.955 309.728C245.955 308.978 246.648 308.603 248.034 308.603C248.813 308.603 249.578 308.721 250.327 308.957C251.076 309.194 251.882 309.497 252.744 309.867L254.16 306.476C252.2 305.572 250.184 305.119 248.11 305.119C245.935 305.119 244.255 305.538 243.07 306.376C241.884 307.213 241.291 308.397 241.291 309.929C241.291 310.823 241.432 311.576 241.715 312.187C241.997 312.799 242.448 313.341 243.07 313.814C243.69 314.287 244.663 314.8 245.986 315.355C246.91 315.746 247.649 316.087 248.203 316.38C248.757 316.674 249.148 316.935 249.374 317.167C249.599 317.398 249.712 317.699 249.712 318.069C249.712 319.055 248.86 319.548 247.156 319.548C246.325 319.548 245.363 319.409 244.27 319.132C243.177 318.855 242.195 318.511 241.322 318.099V321.984C242.119 322.321 242.95 322.572 243.801 322.732C244.683 322.901 245.75 322.986 247.003 322.986C249.444 322.986 251.279 322.524 252.505 321.598V321.599ZM272.944 322.678H268.249V312.611C268.249 311.368 268.041 310.435 267.626 309.813C267.21 309.192 266.556 308.88 265.663 308.88C264.463 308.88 263.591 309.322 263.046 310.206C262.502 311.09 262.231 312.544 262.231 314.569V322.678H257.535V305.443H261.122L261.753 307.647H262.015C262.477 306.856 263.144 306.236 264.016 305.789C264.889 305.342 265.889 305.119 267.018 305.119C269.594 305.119 271.338 305.962 272.252 307.647H272.667C273.129 306.845 273.809 306.224 274.707 305.782C275.605 305.34 276.618 305.119 277.747 305.119C279.697 305.119 281.173 305.62 282.173 306.622C283.173 307.624 283.673 309.23 283.673 311.439V322.678H278.963V312.611C278.963 311.368 278.755 310.435 278.34 309.813C277.924 309.192 277.27 308.88 276.377 308.88C275.228 308.88 274.368 309.292 273.798 310.114C273.229 310.936 272.944 312.241 272.944 314.029V322.678Z" fill="black"/>
<path fill-rule="evenodd" clip-rule="evenodd" d="M297.813 320.334L298.721 322.678H302V311.193C302 309.137 301.384 307.606 300.153 306.599C298.921 305.592 297.151 305.088 294.842 305.088C292.431 305.088 290.234 305.607 288.254 306.645L289.808 309.821C291.666 308.988 293.282 308.572 294.657 308.572C296.443 308.572 297.336 309.446 297.336 311.193V311.948L294.35 312.041C291.774 312.133 289.847 312.614 288.569 313.482C287.292 314.351 286.653 315.7 286.653 317.529C286.653 319.276 287.128 320.622 288.077 321.568C289.026 322.513 290.326 322.986 291.979 322.986C293.323 322.986 294.414 322.793 295.25 322.408C296.086 322.022 296.899 321.332 297.69 320.334H297.813ZM295.519 314.754L297.336 314.692V316.11C297.336 317.149 297.01 317.981 296.358 318.608C295.707 319.235 294.837 319.548 293.749 319.548C292.23 319.548 291.471 318.885 291.471 317.56C291.471 316.634 291.804 315.946 292.472 315.494C293.139 315.042 294.155 314.795 295.519 314.754V314.754ZM176.881 331.267L145.638 340.521C144.684 340.804 143.769 339.977 143.97 339.013L155.131 285.482C155.34 284.481 156.721 284.322 157.157 285.249L177.823 329.198C178.212 330.027 177.768 331.005 176.881 331.267V331.267ZM182.238 329.084L158.311 278.197V278.196C158.013 277.57 157.552 277.035 156.976 276.65C156.4 276.264 155.731 276.042 155.039 276.007C153.583 275.922 152.278 276.625 151.542 277.822L125.591 319.917C125.197 320.553 124.992 321.288 125 322.036C125.008 322.785 125.229 323.515 125.637 324.143L138.322 343.822C139.078 344.997 140.388 345.676 141.75 345.676C142.136 345.676 142.524 345.622 142.906 345.509L179.727 334.602C180.282 334.44 180.795 334.16 181.232 333.781C181.668 333.403 182.019 332.935 182.26 332.41C182.498 331.887 182.619 331.319 182.615 330.744C182.612 330.17 182.483 329.603 182.238 329.084V329.084Z" fill="black"/>
<path fill-rule="evenodd" clip-rule="evenodd" d="M328.167 198C318.522 198 312.494 202.822 310.083 212.467C313.7 207.644 317.919 205.836 322.742 207.042C325.493 207.729 327.459 209.726 329.636 211.935C333.182 215.534 337.286 219.7 346.25 219.7C355.894 219.7 361.922 214.878 364.333 205.233C360.717 210.056 356.497 211.864 351.675 210.658C348.924 209.971 346.957 207.974 344.781 205.765C341.235 202.166 337.131 198 328.167 198ZM310.083 219.7C300.439 219.7 294.411 224.522 292 234.167C295.617 229.344 299.836 227.536 304.658 228.742C307.41 229.43 309.376 231.426 311.553 233.635C315.098 237.234 319.203 241.4 328.167 241.4C337.811 241.4 343.839 236.578 346.25 226.933C342.633 231.756 338.414 233.564 333.592 232.358C330.84 231.671 328.874 229.674 326.697 227.465C323.152 223.866 319.047 219.7 310.083 219.7Z" fill="black"/>
<g clip-path="url(#clip0_2_162)">
<path d="M400.919 68.0331H469.547V80.7H442.323V147.339H428.71V80.7H400.919V68.0331Z" fill="black"/>
<path d="M288.052 68.0331V80.7H233.042V101.077H277.281V113.744H233.042V134.672H288.052V147.339H219.43V80.7H219.424V68.0331H288.052Z" fill="black"/>
<path d="M322.32 68.0661H304.506L368.312 147.372H386.178L354.271 107.746L386.127 68.1267L368.312 68.1542L345.352 96.6697L322.32 68.0661Z" fill="black"/>
<path d="M340.6 124.715L331.679 113.623L304.455 147.433H322.32L340.6 124.715Z" fill="black"/>
<path fill-rule="evenodd" clip-rule="evenodd" d="M219.907 147.339L156.015 68H139V147.306H152.612V84.9516L202.807 147.339H219.907Z" fill="black"/>
<path d="M472.607 146.855C471.61 146.855 470.762 146.509 470.052 145.819C469.342 145.128 468.991 144.292 469 143.301C468.991 142.338 469.342 141.511 470.052 140.82C470.762 140.129 471.61 139.784 472.607 139.784C473.566 139.784 474.405 140.129 475.115 140.82C475.835 141.511 476.194 142.338 476.204 143.301C476.194 143.955 476.028 144.555 475.696 145.091C475.355 145.637 474.922 146.064 474.377 146.373C473.842 146.691 473.252 146.855 472.607 146.855Z" fill="black"/>
<path d="M495.84 113.445H501.872V136.685C501.863 138.82 501.401 140.647 500.498 142.183C499.585 143.719 498.321 144.891 496.698 145.718C495.084 146.536 493.193 146.955 491.044 146.955C489.079 146.955 487.318 146.6 485.75 145.909C484.182 145.219 482.937 144.183 482.024 142.819C481.101 141.456 480.649 139.756 480.649 137.721H486.691C486.7 138.611 486.903 139.384 487.29 140.029C487.677 140.674 488.212 141.165 488.895 141.51C489.586 141.856 490.38 142.029 491.274 142.029C492.243 142.029 493.073 141.829 493.746 141.42C494.419 141.02 494.936 140.42 495.296 139.62C495.646 138.829 495.831 137.848 495.84 136.685V113.445Z" fill="black"/>
<path d="M526.691 122.534C526.544 121.125 525.898 120.025 524.773 119.244C523.638 118.453 522.172 118.062 520.373 118.062C519.11 118.062 518.022 118.253 517.118 118.626C516.214 119.008 515.513 119.516 515.033 120.162C514.554 120.807 514.314 121.543 514.295 122.37C514.295 123.061 514.461 123.661 514.784 124.161C515.107 124.67 515.54 125.097 516.103 125.442C516.656 125.797 517.274 126.087 517.948 126.324C518.63 126.56 519.313 126.76 519.995 126.924L523.14 127.696C524.404 127.987 525.631 128.378 526.802 128.878C527.973 129.368 529.034 129.996 529.965 130.75C530.897 131.504 531.635 132.413 532.179 133.476C532.723 134.54 533 135.785 533 137.221C533 139.157 532.502 140.856 531.496 142.328C530.491 143.792 529.043 144.937 527.143 145.764C525.252 146.582 522.965 147 520.272 147C517.671 147 515.402 146.6 513.493 145.8C511.575 145.01 510.08 143.846 509.001 142.319C507.922 140.793 507.341 138.929 507.258 136.739H513.235C513.318 137.884 513.687 138.839 514.314 139.611C514.95 140.374 515.78 140.938 516.795 141.32C517.819 141.692 518.962 141.883 520.226 141.883C521.545 141.883 522.707 141.683 523.712 141.292C524.708 140.902 525.492 140.356 526.055 139.647C526.627 138.948 526.913 138.121 526.922 137.175C526.913 136.312 526.654 135.594 526.156 135.03C525.649 134.467 524.948 133.994 524.053 133.613C523.15 133.231 522.098 132.886 520.899 132.586L517.081 131.622C514.323 130.922 512.137 129.859 510.541 128.432C508.937 127.005 508.143 125.115 508.143 122.743C508.143 120.798 508.678 119.089 509.758 117.626C510.827 116.163 512.294 115.027 514.148 114.218C516.011 113.4 518.114 113 520.456 113C522.836 113 524.92 113.4 526.719 114.218C528.517 115.027 529.929 116.154 530.952 117.59C531.976 119.026 532.511 120.671 532.539 122.534H526.691Z" fill="black"/>
</g>
<path d="M33.668 480.4C33.668 478.912 33.956 477.604 34.532 476.476C35.132 475.324 35.96 474.424 37.016 473.776C38.096 473.128 39.356 472.804 40.796 472.804C42.26 472.804 43.52 473.128 44.576 473.776C45.632 474.424 46.448 475.324 47.024 476.476C47.6 477.604 47.888 478.912 47.888 480.4C47.888 481.888 47.588 483.208 46.988 484.36C46.412 485.488 45.584 486.376 44.504 487.024C43.448 487.672 42.212 487.996 40.796 487.996C39.356 487.996 38.096 487.672 37.016 487.024C35.96 486.376 35.132 485.488 34.532 484.36C33.956 483.208 33.668 481.888 33.668 480.4ZM27.224 480.4C27.224 482.344 27.548 484.132 28.196 485.764C28.868 487.396 29.804 488.812 31.004 490.012C32.228 491.212 33.668 492.148 35.324 492.82C36.98 493.468 38.804 493.792 40.796 493.792C42.764 493.792 44.576 493.468 46.232 492.82C47.888 492.148 49.316 491.212 50.516 490.012C51.74 488.812 52.676 487.396 53.324 485.764C53.996 484.132 54.332 482.344 54.332 480.4C54.332 478.456 53.996 476.68 53.324 475.072C52.652 473.464 51.704 472.072 50.48 470.896C49.256 469.72 47.816 468.82 46.16 468.196C44.528 467.548 42.74 467.224 40.796 467.224C38.876 467.224 37.088 467.548 35.432 468.196C33.776 468.82 32.336 469.72 31.112 470.896C29.888 472.072 28.928 473.464 28.232 475.072C27.56 476.68 27.224 478.456 27.224 480.4ZM68.4544 482.92V493H74.1064V482.344C74.1064 480.352 73.6384 478.804 72.7024 477.7C71.7664 476.596 70.2664 476.044 68.2024 476.044C66.9784 476.044 65.9464 476.296 65.1064 476.8C64.2904 477.304 63.6424 478.012 63.1624 478.924V476.44H57.6904V493H63.1624V482.92C63.1624 482.272 63.2824 481.72 63.5224 481.264C63.7624 480.808 64.0984 480.46 64.5304 480.22C64.9624 479.98 65.4664 479.86 66.0424 479.86C66.9064 479.86 67.5184 480.124 67.8784 480.652C68.2624 481.18 68.4544 481.936 68.4544 482.92ZM78.3974 464.92V493H83.8694V464.92H78.3974ZM87.7766 470.212C87.7766 471.076 88.0886 471.784 88.7126 472.336C89.3366 472.888 90.0806 473.164 90.9446 473.164C91.8326 473.164 92.5766 472.888 93.1766 472.336C93.8006 471.784 94.1126 471.076 94.1126 470.212C94.1126 469.348 93.8006 468.652 93.1766 468.124C92.5766 467.572 91.8326 467.296 90.9446 467.296C90.0806 467.296 89.3366 467.572 88.7126 468.124C88.0886 468.652 87.7766 469.348 87.7766 470.212ZM88.3166 476.44V493H93.5726V476.44H88.3166ZM108.814 482.92V493H114.466V482.344C114.466 480.352 113.998 478.804 113.062 477.7C112.126 476.596 110.626 476.044 108.562 476.044C107.338 476.044 106.306 476.296 105.466 476.8C104.65 477.304 104.002 478.012 103.522 478.924V476.44H98.0498V493H103.522V482.92C103.522 482.272 103.642 481.72 103.882 481.264C104.122 480.808 104.458 480.46 104.89 480.22C105.322 479.98 105.826 479.86 106.402 479.86C107.266 479.86 107.878 480.124 108.238 480.652C108.622 481.18 108.814 481.936 108.814 482.92ZM127.181 493.36C129.293 493.36 131.081 492.952 132.545 492.136C134.033 491.32 135.209 490.096 136.073 488.464L131.213 487.276C130.805 487.996 130.253 488.536 129.557 488.896C128.885 489.256 128.069 489.436 127.109 489.436C126.269 489.436 125.561 489.256 124.985 488.896C124.409 488.512 123.977 487.96 123.689 487.24C123.401 486.52 123.257 485.656 123.257 484.648C123.281 483.544 123.425 482.632 123.689 481.912C123.977 481.168 124.397 480.616 124.949 480.256C125.501 479.896 126.185 479.716 127.001 479.716C127.649 479.716 128.213 479.86 128.693 480.148C129.173 480.436 129.545 480.844 129.809 481.372C130.073 481.9 130.205 482.524 130.205 483.244C130.205 483.412 130.157 483.628 130.061 483.892C129.989 484.132 129.893 484.336 129.773 484.504L131.069 482.848H120.845V485.872H135.965C136.013 485.704 136.037 485.5 136.037 485.26C136.037 484.996 136.037 484.732 136.037 484.468C136.037 482.692 135.689 481.18 134.993 479.932C134.297 478.684 133.289 477.736 131.969 477.088C130.649 476.416 129.029 476.08 127.109 476.08C125.189 476.08 123.521 476.428 122.105 477.124C120.713 477.82 119.645 478.816 118.901 480.112C118.157 481.408 117.785 482.944 117.785 484.72C117.785 486.472 118.169 487.996 118.937 489.292C119.705 490.588 120.785 491.596 122.177 492.316C123.593 493.012 125.261 493.36 127.181 493.36ZM153.499 484.144L149.25 487.204C149.827 488.404 150.631 489.508 151.663 490.516C152.695 491.524 153.907 492.328 155.299 492.928C156.715 493.504 158.239 493.792 159.871 493.792C161.047 493.792 162.187 493.612 163.291 493.252C164.419 492.916 165.415 492.412 166.279 491.74C167.167 491.068 167.863 490.24 168.367 489.256C168.895 488.248 169.159 487.108 169.159 485.836C169.159 484.78 168.991 483.844 168.655 483.028C168.319 482.212 167.851 481.492 167.251 480.868C166.675 480.244 166.003 479.716 165.235 479.284C164.467 478.828 163.639 478.432 162.751 478.096C161.575 477.688 160.567 477.304 159.727 476.944C158.911 476.584 158.275 476.188 157.819 475.756C157.387 475.324 157.171 474.82 157.171 474.244C157.171 473.692 157.399 473.236 157.855 472.876C158.311 472.492 158.971 472.3 159.835 472.3C160.483 472.3 161.083 472.432 161.635 472.696C162.211 472.936 162.727 473.284 163.183 473.74C163.663 474.172 164.083 474.688 164.443 475.288L169.087 472.696C168.655 471.832 168.031 470.98 167.215 470.14C166.399 469.3 165.367 468.604 164.119 468.052C162.895 467.5 161.443 467.224 159.763 467.224C158.131 467.224 156.643 467.512 155.299 468.088C153.979 468.64 152.923 469.456 152.131 470.536C151.363 471.616 150.979 472.9 150.979 474.388C150.979 475.636 151.207 476.704 151.663 477.592C152.119 478.456 152.695 479.2 153.391 479.824C154.087 480.424 154.819 480.916 155.587 481.3C156.379 481.684 157.075 481.984 157.675 482.2C158.899 482.656 159.883 483.064 160.627 483.424C161.371 483.784 161.911 484.168 162.247 484.576C162.583 484.96 162.751 485.476 162.751 486.124C162.751 486.892 162.463 487.504 161.887 487.96C161.311 488.392 160.579 488.608 159.691 488.608C158.851 488.608 158.047 488.428 157.279 488.068C156.535 487.708 155.839 487.192 155.191 486.52C154.567 485.848 154.003 485.056 153.499 484.144ZM178.159 464.92H172.687V493H178.159V464.92ZM183.451 482.92V493H188.887V482.128C188.887 480.76 188.695 479.608 188.311 478.672C187.927 477.736 187.315 477.028 186.475 476.548C185.659 476.068 184.567 475.828 183.199 475.828C181.831 475.828 180.702 476.152 179.814 476.8C178.951 477.424 178.303 478.276 177.871 479.356C177.439 480.412 177.223 481.6 177.223 482.92H178.159C178.159 482.272 178.279 481.732 178.519 481.3C178.759 480.844 179.095 480.496 179.527 480.256C179.959 479.992 180.463 479.86 181.039 479.86C181.927 479.86 182.551 480.124 182.911 480.652C183.271 481.18 183.451 481.936 183.451 482.92ZM192.211 484.72C192.211 486.448 192.619 487.96 193.435 489.256C194.251 490.552 195.379 491.56 196.819 492.28C198.259 493 199.879 493.36 201.679 493.36C203.479 493.36 205.087 493 206.503 492.28C207.943 491.56 209.071 490.552 209.887 489.256C210.727 487.96 211.147 486.448 211.147 484.72C211.147 482.968 210.727 481.444 209.887 480.148C209.071 478.852 207.943 477.844 206.503 477.124C205.087 476.404 203.479 476.044 201.679 476.044C199.879 476.044 198.259 476.404 196.819 477.124C195.379 477.844 194.251 478.852 193.435 480.148C192.619 481.444 192.211 482.968 192.211 484.72ZM197.791 484.72C197.791 483.856 197.971 483.112 198.331 482.488C198.691 481.864 199.159 481.384 199.735 481.048C200.311 480.712 200.959 480.544 201.679 480.544C202.375 480.544 203.011 480.712 203.587 481.048C204.187 481.384 204.655 481.864 204.991 482.488C205.351 483.112 205.531 483.856 205.531 484.72C205.531 485.584 205.351 486.328 204.991 486.952C204.655 487.552 204.187 488.02 203.587 488.356C203.011 488.692 202.375 488.86 201.679 488.86C200.959 488.86 200.311 488.692 199.735 488.356C199.159 488.02 198.691 487.552 198.331 486.952C197.971 486.328 197.791 485.584 197.791 484.72ZM219.817 500.92V476.44H214.381V500.92H219.817ZM233.353 484.72C233.353 482.776 232.969 481.156 232.201 479.86C231.457 478.54 230.485 477.544 229.285 476.872C228.109 476.2 226.837 475.864 225.469 475.864C224.029 475.864 222.781 476.236 221.725 476.98C220.693 477.7 219.901 478.72 219.349 480.04C218.797 481.36 218.521 482.92 218.521 484.72C218.521 486.496 218.797 488.056 219.349 489.4C219.901 490.72 220.693 491.752 221.725 492.496C222.781 493.216 224.029 493.576 225.469 493.576C226.837 493.576 228.109 493.24 229.285 492.568C230.485 491.896 231.457 490.9 232.201 489.58C232.969 488.26 233.353 486.64 233.353 484.72ZM227.629 484.72C227.629 485.584 227.449 486.316 227.089 486.916C226.729 487.516 226.249 487.972 225.649 488.284C225.049 488.596 224.389 488.752 223.669 488.752C223.045 488.752 222.433 488.608 221.833 488.32C221.257 488.008 220.777 487.552 220.393 486.952C220.009 486.352 219.817 485.608 219.817 484.72C219.817 483.832 220.009 483.088 220.393 482.488C220.777 481.888 221.257 481.444 221.833 481.156C222.433 480.844 223.045 480.688 223.669 480.688C224.389 480.688 225.049 480.844 225.649 481.156C226.249 481.468 226.729 481.924 227.089 482.524C227.449 483.124 227.629 483.856 227.629 484.72Z" fill="black"/>
<path fill-rule="evenodd" clip-rule="evenodd" d="M448 193L472 206.75V234.25L448 248L424 234.25V206.75L448 193ZM426.693 208.293V228.492L444.322 198.193L426.693 208.293ZM448 197.215L427.678 232.143H468.322L448 197.215ZM465.629 234.815H430.371L448 244.914L465.629 234.815ZM469.307 228.492L451.678 198.193L469.307 208.293V228.492Z" fill="black"/>
<path d="M448 200C451.314 200 454 197.538 454 194.5C454 191.462 451.314 189 448 189C444.686 189 442 191.462 442 194.5C442 197.538 444.686 200 448 200Z" fill="black"/>
<path d="M470.5 213C473.538 213 476 210.538 476 207.5C476 204.462 473.538 202 470.5 202C467.462 202 465 204.462 465 207.5C465 210.538 467.462 213 470.5 213Z" fill="black"/>
<path d="M470.5 239C473.538 239 476 236.538 476 233.5C476 230.462 473.538 228 470.5 228C467.462 228 465 230.462 465 233.5C465 236.538 467.462 239 470.5 239Z" fill="black"/>
<path d="M448 252C451.314 252 454 249.538 454 246.5C454 243.462 451.314 241 448 241C444.686 241 442 243.462 442 246.5C442 249.538 444.686 252 448 252Z" fill="black"/>
<path d="M425.5 239C428.538 239 431 236.538 431 233.5C431 230.462 428.538 228 425.5 228C422.462 228 420 230.462 420 233.5C420 236.538 422.462 239 425.5 239Z" fill="black"/>
<path d="M425.5 213C428.538 213 431 210.538 431 207.5C431 204.462 428.538 202 425.5 202C422.462 202 420 204.462 420 207.5C420 210.538 422.462 213 425.5 213Z" fill="black"/>
<path d="M504.959 234C501.552 234 498.907 233.033 497.026 231.1C495.145 229.167 494.15 226.575 494.041 223.326C494.014 222.521 494 221.245 494 219.5C494 217.755 494.014 216.479 494.041 215.674C494.15 212.425 495.145 209.833 497.026 207.9C498.907 205.967 501.552 205 504.959 205C507.277 205 509.226 205.43 510.807 206.289C512.388 207.148 513.56 208.169 514.324 209.35C515.114 210.505 515.537 211.538 515.591 212.451V212.532C515.591 212.747 515.509 212.921 515.346 213.056C515.182 213.19 514.978 213.257 514.732 213.257H513.833C513.588 213.257 513.41 213.203 513.301 213.096C513.192 212.988 513.083 212.774 512.974 212.451C512.511 211.028 511.611 209.833 510.275 208.867C508.967 207.9 507.195 207.417 504.959 207.417C502.424 207.417 500.42 208.101 498.948 209.471C497.503 210.84 496.726 212.975 496.617 215.875C496.59 216.681 496.577 217.889 496.577 219.5C496.577 221.111 496.59 222.319 496.617 223.125C496.726 226.025 497.503 228.16 498.948 229.529C500.42 230.899 502.424 231.583 504.959 231.583C507.494 231.583 509.539 230.872 511.093 229.449C512.647 228.025 513.423 225.918 513.423 223.125V221.071H506.309C506.036 221.071 505.818 220.99 505.655 220.829C505.491 220.641 505.409 220.413 505.409 220.144V219.581C505.409 219.312 505.491 219.097 505.655 218.936C505.818 218.748 506.036 218.654 506.309 218.654H515.059C515.359 218.654 515.591 218.735 515.755 218.896C515.918 219.057 516 219.285 516 219.581V223.125C516 225.273 515.564 227.166 514.691 228.804C513.819 230.442 512.551 231.718 510.889 232.631C509.226 233.544 507.249 234 504.959 234Z" fill="black"/>
<path d="M521.859 234C521.599 234 521.391 233.919 521.234 233.758C521.078 233.596 521 233.381 521 233.112V213.929C521 213.66 521.078 213.444 521.234 213.283C521.391 213.094 521.599 213 521.859 213H522.484C522.745 213 522.953 213.094 523.109 213.283C523.292 213.444 523.383 213.66 523.383 213.929V215.787C524.321 213.929 526.091 213 528.696 213H530.141C530.401 213 530.609 213.081 530.766 213.242C530.922 213.404 531 213.619 531 213.888V214.454C531 214.723 530.922 214.938 530.766 215.1C530.609 215.262 530.401 215.342 530.141 215.342H528.461C526.899 215.342 525.662 215.813 524.75 216.756C523.839 217.698 523.383 218.977 523.383 220.592V233.112C523.383 233.381 523.292 233.596 523.109 233.758C522.953 233.919 522.745 234 522.484 234H521.859Z" fill="black"/>
<path d="M540.298 234C538.993 234 537.783 233.741 536.669 233.222C535.555 232.704 534.658 232.004 533.978 231.122C533.326 230.241 533 229.268 533 228.206C533 226.494 533.72 225.094 535.161 224.006C536.629 222.917 538.598 222.217 541.072 221.906L547.513 221.05V219.689C547.513 218.263 547.051 217.174 546.127 216.422C545.23 215.644 543.844 215.256 541.969 215.256C540.583 215.256 539.441 215.515 538.544 216.033C537.675 216.552 537.118 217.174 536.873 217.9C536.764 218.211 536.629 218.432 536.465 218.561C536.329 218.665 536.139 218.717 535.895 218.717H535.324C535.079 218.717 534.862 218.639 534.672 218.483C534.509 218.302 534.427 218.094 534.427 217.861C534.427 217.291 534.699 216.63 535.242 215.878C535.786 215.1 536.629 214.426 537.77 213.856C538.911 213.285 540.311 213 541.969 213C544.876 213 546.942 213.661 548.165 214.983C549.388 216.306 550 217.913 550 219.806V232.756C550 233.015 549.918 233.222 549.755 233.378C549.592 233.533 549.374 233.611 549.103 233.611H548.41C548.138 233.611 547.921 233.533 547.758 233.378C547.594 233.222 547.513 233.015 547.513 232.756V230.928C546.915 231.783 546.032 232.509 544.863 233.106C543.722 233.702 542.2 234 540.298 234ZM540.705 231.744C542.689 231.744 544.319 231.122 545.597 229.878C546.874 228.633 547.513 226.844 547.513 224.511V223.189L542.254 223.889C540.026 224.174 538.341 224.667 537.199 225.367C536.058 226.067 535.487 226.948 535.487 228.011C535.487 229.204 536.003 230.124 537.036 230.772C538.096 231.42 539.319 231.744 540.705 231.744Z" fill="black"/>
<path d="M556.892 241C556.622 241 556.405 240.922 556.243 240.767C556.081 240.611 556 240.404 556 240.144V214.244C556 213.985 556.081 213.778 556.243 213.622C556.405 213.467 556.622 213.389 556.892 213.389H557.581C557.852 213.389 558.068 213.467 558.23 213.622C558.392 213.778 558.473 213.985 558.473 214.244V216.072C560.041 214.024 562.311 213 565.284 213C568.203 213 570.351 213.894 571.73 215.683C573.135 217.446 573.879 219.624 573.96 222.217C573.987 222.476 574 222.904 574 223.5C574 224.096 573.987 224.524 573.96 224.783C573.879 227.376 573.135 229.567 571.73 231.356C570.351 233.118 568.203 234 565.284 234C562.338 234 560.068 232.976 558.473 230.928V240.144C558.473 240.404 558.392 240.611 558.23 240.767C558.068 240.922 557.852 241 557.581 241H556.892ZM565.041 231.744C567.23 231.744 568.824 231.083 569.825 229.761C570.851 228.413 571.405 226.689 571.486 224.589C571.514 224.33 571.527 223.967 571.527 223.5C571.527 221.089 571.041 219.118 570.068 217.589C569.095 216.033 567.419 215.256 565.041 215.256C562.906 215.256 561.298 215.943 560.216 217.317C559.136 218.665 558.554 220.259 558.473 222.1L558.432 223.617L558.473 225.133C558.501 226.248 558.757 227.311 559.243 228.322C559.73 229.307 560.459 230.124 561.432 230.772C562.405 231.42 563.609 231.744 565.041 231.744Z" fill="black"/>
<path d="M579.915 234C579.638 234 579.416 233.918 579.249 233.755C579.083 233.592 579 233.374 579 233.101V205.899C579 205.626 579.083 205.408 579.249 205.245C579.416 205.082 579.638 205 579.915 205H580.622C580.899 205 581.12 205.082 581.287 205.245C581.453 205.408 581.536 205.626 581.536 205.899V215.579C582.367 214.517 583.31 213.714 584.363 213.169C585.444 212.624 586.829 212.352 588.52 212.352C591.235 212.352 593.328 213.21 594.796 214.925C596.266 216.614 597 218.806 597 221.501V233.101C597 233.374 596.917 233.592 596.751 233.755C596.584 233.918 596.363 234 596.085 234H595.378C595.102 234 594.88 233.918 594.713 233.755C594.547 233.592 594.464 233.374 594.464 233.101V221.706C594.464 219.5 593.91 217.785 592.801 216.559C591.72 215.334 590.155 214.721 588.104 214.721C586.109 214.721 584.515 215.347 583.323 216.6C582.132 217.825 581.536 219.527 581.536 221.706V233.101C581.536 233.374 581.453 233.592 581.287 233.755C581.12 233.918 580.899 234 580.622 234H579.915Z" fill="black"/>
<path d="M621.023 236C620.627 236 620.205 235.693 619.757 235.08L618.017 232.64C616.435 233.413 614.589 233.8 612.48 233.8C605.704 233.8 602.224 230.12 602.039 222.76C602.013 221.96 602 220.84 602 219.4C602 217.96 602.013 216.84 602.039 216.04C602.145 212.413 603.12 209.667 604.966 207.8C606.812 205.933 609.316 205 612.48 205C615.644 205 618.148 205.933 619.994 207.8C621.84 209.667 622.815 212.413 622.921 216.04C622.973 217.64 623 218.76 623 219.4C623 220.04 622.973 221.16 622.921 222.76C622.789 226.573 621.827 229.373 620.034 231.16L622.565 234.76C622.644 234.92 622.684 235.067 622.684 235.2C622.684 235.413 622.605 235.6 622.446 235.76C622.288 235.92 622.103 236 621.893 236H621.023ZM612.48 231.4C614.853 231.4 616.738 230.68 618.136 229.24C619.56 227.773 620.324 225.547 620.43 222.56C620.482 220.96 620.509 219.907 620.509 219.4C620.509 218.893 620.482 217.84 620.43 216.24C620.324 213.253 619.56 211.04 618.136 209.6C616.712 208.133 614.826 207.4 612.48 207.4C610.134 207.4 608.249 208.133 606.825 209.6C605.401 211.04 604.636 213.253 604.531 216.24C604.505 217.04 604.491 218.093 604.491 219.4C604.491 220.707 604.505 221.76 604.531 222.56C604.636 225.547 605.388 227.773 606.785 229.24C608.209 230.68 610.107 231.4 612.48 231.4Z" fill="black"/>
<path d="M630.868 234C630.605 234 630.394 233.92 630.237 233.76C630.079 233.6 630 233.387 630 233.12V206.88C630 206.613 630.079 206.4 630.237 206.24C630.394 206.08 630.605 206 630.868 206H631.617C631.881 206 632.091 206.08 632.249 206.24C632.406 206.4 632.485 206.613 632.485 206.88V231.6H646.093C646.382 231.6 646.606 231.68 646.763 231.84C646.921 232 647 232.227 647 232.52V233.12C647 233.387 646.908 233.6 646.724 233.76C646.566 233.92 646.356 234 646.093 234H630.868Z" fill="black"/>
<defs>
<clipPath id="clip0_2_162">
<rect width="394" height="80" fill="white" transform="translate(139 68)"/>
</clipPath>
</defs>
</svg>
